<?xml version="1.0" encoding="utf-8" standalone="no"?>
<!DOCTYPE svg PUBLIC "-//W3C//DTD SVG 1.1//EN"
  "http://www.w3.org/Graphics/SVG/1.1/DTD/svg11.dtd">
<svg xmlns:xlink="http://www.w3.org/1999/xlink" width="1296pt" height="1296pt" viewBox="0 0 1296 1296" xmlns="http://www.w3.org/2000/svg" version="1.1">
 <metadata>
  <rdf:RDF xmlns:dc="http://purl.org/dc/elements/1.1/" xmlns:cc="http://creativecommons.org/ns#" xmlns:rdf="http://www.w3.org/1999/02/22-rdf-syntax-ns#">
   <cc:Work>
    <dc:type rdf:resource="http://purl.org/dc/dcmitype/StillImage"/>
    <dc:date>2022-03-02T01:04:32.933135</dc:date>
    <dc:format>image/svg+xml</dc:format>
    <dc:creator>
     <cc:Agent>
      <dc:title>Matplotlib v3.5.1, https://matplotlib.org/</dc:title>
     </cc:Agent>
    </dc:creator>
   </cc:Work>
  </rdf:RDF>
 </metadata>
 <defs>
  <style type="text/css">*{stroke-linejoin: round; stroke-linecap: butt}</style>
 </defs>
 <g id="figure_1">
  <g id="patch_1">
   <path d="M 0 1296 
L 1296 1296 
L 1296 0 
L 0 0 
L 0 1296 
z
" style="fill: none"/>
  </g>
  <g id="axes_1">
   <g id="patch_2">
    <path d="M 162 600.283636 
L 1166.4 600.283636 
L 1166.4 155.52 
L 162 155.52 
z
" style="fill: #ffffff"/>
   </g>
   <g id="patch_3">
    <path d="M 162 600.283636 
L 162 588.883208 
L 182.088 588.883208 
L 182.088 592.140473 
L 202.176 592.140473 
L 202.176 579.111412 
L 222.264 579.111412 
L 222.264 574.225514 
L 242.352 574.225514 
L 242.352 583.99731 
L 262.44 583.99731 
L 262.44 575.854147 
L 282.528 575.854147 
L 282.528 574.225514 
L 302.616 574.225514 
L 302.616 575.854147 
L 322.704 575.854147 
L 322.704 577.482779 
L 342.792 577.482779 
L 342.792 583.99731 
L 362.88 583.99731 
L 362.88 561.196453 
L 382.968 561.196453 
L 382.968 559.56782 
L 403.056 559.56782 
L 403.056 579.111412 
L 423.144 579.111412 
L 423.144 564.453718 
L 443.232 564.453718 
L 443.232 572.596882 
L 463.32 572.596882 
L 463.32 554.681923 
L 483.408 554.681923 
L 483.408 561.196453 
L 503.496 561.196453 
L 503.496 551.424657 
L 523.584 551.424657 
L 523.584 551.424657 
L 543.672 551.424657 
L 543.672 546.538759 
L 563.76 546.538759 
L 563.76 561.196453 
L 583.848 561.196453 
L 583.848 598.655004 
L 603.936 598.655004 
L 603.936 600.283636 
L 624.024 600.283636 
L 624.024 600.283636 
L 644.112 600.283636 
L 644.112 600.283636 
L 664.2 600.283636 
L 664.2 600.283636 
L 684.288 600.283636 
L 684.288 600.283636 
L 704.376 600.283636 
L 704.376 600.283636 
L 724.464 600.283636 
L 724.464 600.283636 
L 744.552 600.283636 
L 744.552 600.283636 
L 764.64 600.283636 
L 764.64 600.283636 
L 744.552 600.283636 
L 744.552 600.283636 
L 724.464 600.283636 
L 724.464 600.283636 
L 704.376 600.283636 
L 704.376 600.283636 
L 684.288 600.283636 
L 684.288 600.283636 
L 664.2 600.283636 
L 664.2 600.283636 
L 644.112 600.283636 
L 644.112 600.283636 
L 624.024 600.283636 
L 624.024 600.283636 
L 603.936 600.283636 
L 603.936 600.283636 
L 583.848 600.283636 
L 583.848 600.283636 
L 563.76 600.283636 
L 563.76 600.283636 
L 543.672 600.283636 
L 543.672 600.283636 
L 523.584 600.283636 
L 523.584 600.283636 
L 503.496 600.283636 
L 503.496 600.283636 
L 483.408 600.283636 
L 483.408 600.283636 
L 463.32 600.283636 
L 463.32 600.283636 
L 443.232 600.283636 
L 443.232 600.283636 
L 423.144 600.283636 
L 423.144 600.283636 
L 403.056 600.283636 
L 403.056 600.283636 
L 382.968 600.283636 
L 382.968 600.283636 
L 362.88 600.283636 
L 362.88 600.283636 
L 342.792 600.283636 
L 342.792 600.283636 
L 322.704 600.283636 
L 322.704 600.283636 
L 302.616 600.283636 
L 302.616 600.283636 
L 282.528 600.283636 
L 282.528 600.283636 
L 262.44 600.283636 
L 262.44 600.283636 
L 242.352 600.283636 
L 242.352 600.283636 
L 222.264 600.283636 
L 222.264 600.283636 
L 202.176 600.283636 
L 202.176 600.283636 
L 182.088 600.283636 
L 182.088 600.283636 
z
" clip-path="url(#pcfee1cd4e2)" style="fill: #1f77b4; opacity: 0.5"/>
   </g>
   <g id="patch_4">
    <path d="M 162 600.283636 
L 162 597.199462 
L 182.088 597.199462 
L 182.088 598.741549 
L 202.176 598.741549 
L 202.176 597.199462 
L 222.264 597.199462 
L 222.264 598.741549 
L 242.352 598.741549 
L 242.352 592.573202 
L 262.44 592.573202 
L 262.44 597.199462 
L 282.528 597.199462 
L 282.528 597.199462 
L 302.616 597.199462 
L 302.616 597.199462 
L 322.704 597.199462 
L 322.704 592.573202 
L 342.792 592.573202 
L 342.792 591.031115 
L 362.88 591.031115 
L 362.88 595.657376 
L 382.968 595.657376 
L 382.968 591.031115 
L 403.056 591.031115 
L 403.056 591.031115 
L 423.144 591.031115 
L 423.144 586.404854 
L 443.232 586.404854 
L 443.232 583.32068 
L 463.32 583.32068 
L 463.32 578.694419 
L 483.408 578.694419 
L 483.408 570.983984 
L 503.496 570.983984 
L 503.496 561.731463 
L 523.584 561.731463 
L 523.584 538.600159 
L 543.672 538.600159 
L 543.672 500.047985 
L 563.76 500.047985 
L 563.76 361.260161 
L 583.848 361.260161 
L 583.848 550.936854 
L 603.936 550.936854 
L 603.936 600.283636 
L 624.024 600.283636 
L 624.024 600.283636 
L 644.112 600.283636 
L 644.112 600.283636 
L 664.2 600.283636 
L 664.2 600.283636 
L 684.288 600.283636 
L 684.288 600.283636 
L 704.376 600.283636 
L 704.376 600.283636 
L 724.464 600.283636 
L 724.464 598.741549 
L 744.552 598.741549 
L 744.552 600.283636 
L 764.64 600.283636 
L 764.64 600.283636 
L 744.552 600.283636 
L 744.552 600.283636 
L 724.464 600.283636 
L 724.464 600.283636 
L 704.376 600.283636 
L 704.376 600.283636 
L 684.288 600.283636 
L 684.288 600.283636 
L 664.2 600.283636 
L 664.2 600.283636 
L 644.112 600.283636 
L 644.112 600.283636 
L 624.024 600.283636 
L 624.024 600.283636 
L 603.936 600.283636 
L 603.936 600.283636 
L 583.848 600.283636 
L 583.848 600.283636 
L 563.76 600.283636 
L 563.76 600.283636 
L 543.672 600.283636 
L 543.672 600.283636 
L 523.584 600.283636 
L 523.584 600.283636 
L 503.496 600.283636 
L 503.496 600.283636 
L 483.408 600.283636 
L 483.408 600.283636 
L 463.32 600.283636 
L 463.32 600.283636 
L 443.232 600.283636 
L 443.232 600.283636 
L 423.144 600.283636 
L 423.144 600.283636 
L 403.056 600.283636 
L 403.056 600.283636 
L 382.968 600.283636 
L 382.968 600.283636 
L 362.88 600.283636 
L 362.88 600.283636 
L 342.792 600.283636 
L 342.792 600.283636 
L 322.704 600.283636 
L 322.704 600.283636 
L 302.616 600.283636 
L 302.616 600.283636 
L 282.528 600.283636 
L 282.528 600.283636 
L 262.44 600.283636 
L 262.44 600.283636 
L 242.352 600.283636 
L 242.352 600.283636 
L 222.264 600.283636 
L 222.264 600.283636 
L 202.176 600.283636 
L 202.176 600.283636 
L 182.088 600.283636 
L 182.088 600.283636 
z
" clip-path="url(#pcfee1cd4e2)" style="fill: #ff7f0e; opacity: 0.5"/>
   </g>
   <g id="patch_5">
    <path d="M 162 600.283636 
L 162 600.283636 
L 178.74 600.283636 
L 178.74 600.283636 
L 195.48 600.283636 
L 195.48 597.091516 
L 212.22 597.091516 
L 212.22 600.283636 
L 228.96 600.283636 
L 228.96 600.283636 
L 245.7 600.283636 
L 245.7 597.091516 
L 262.44 597.091516 
L 262.44 600.283636 
L 279.18 600.283636 
L 279.18 597.091516 
L 295.92 597.091516 
L 295.92 600.283636 
L 312.66 600.283636 
L 312.66 597.091516 
L 329.4 597.091516 
L 329.4 600.283636 
L 346.14 600.283636 
L 346.14 600.283636 
L 362.88 600.283636 
L 362.88 600.283636 
L 379.62 600.283636 
L 379.62 600.283636 
L 396.36 600.283636 
L 396.36 597.091516 
L 413.1 597.091516 
L 413.1 590.707276 
L 429.84 590.707276 
L 429.84 584.323037 
L 446.58 584.323037 
L 446.58 590.707276 
L 463.32 590.707276 
L 463.32 581.130917 
L 480.06 581.130917 
L 480.06 577.938797 
L 496.8 577.938797 
L 496.8 558.786077 
L 513.54 558.786077 
L 513.54 561.978197 
L 530.28 561.978197 
L 530.28 558.786077 
L 547.02 558.786077 
L 547.02 523.672757 
L 563.76 523.672757 
L 563.76 542.825477 
L 580.5 542.825477 
L 580.5 571.554557 
L 597.24 571.554557 
L 597.24 584.323037 
L 613.98 584.323037 
L 613.98 584.323037 
L 630.72 584.323037 
L 630.72 587.515156 
L 647.46 587.515156 
L 647.46 577.938797 
L 664.2 577.938797 
L 664.2 590.707276 
L 680.94 590.707276 
L 680.94 587.515156 
L 697.68 587.515156 
L 697.68 593.899396 
L 714.42 593.899396 
L 714.42 581.130917 
L 731.16 581.130917 
L 731.16 600.283636 
L 747.9 600.283636 
L 747.9 593.899396 
L 764.64 593.899396 
L 764.64 587.515156 
L 781.38 587.515156 
L 781.38 587.515156 
L 798.12 587.515156 
L 798.12 587.515156 
L 814.86 587.515156 
L 814.86 590.707276 
L 831.6 590.707276 
L 831.6 593.899396 
L 848.34 593.899396 
L 848.34 577.938797 
L 865.08 577.938797 
L 865.08 593.899396 
L 881.82 593.899396 
L 881.82 593.899396 
L 898.56 593.899396 
L 898.56 590.707276 
L 915.3 590.707276 
L 915.3 590.707276 
L 932.04 590.707276 
L 932.04 590.707276 
L 948.78 590.707276 
L 948.78 584.323037 
L 965.52 584.323037 
L 965.52 587.515156 
L 982.26 587.515156 
L 982.26 587.515156 
L 999 587.515156 
L 999 593.899396 
L 1015.74 593.899396 
L 1015.74 593.899396 
L 1032.48 593.899396 
L 1032.48 590.707276 
L 1049.22 590.707276 
L 1049.22 587.515156 
L 1065.96 587.515156 
L 1065.96 590.707276 
L 1082.7 590.707276 
L 1082.7 590.707276 
L 1099.44 590.707276 
L 1099.44 587.515156 
L 1116.18 587.515156 
L 1116.18 590.707276 
L 1132.92 590.707276 
L 1132.92 584.323037 
L 1149.66 584.323037 
L 1149.66 584.323037 
L 1166.4 584.323037 
L 1166.4 600.283636 
L 1149.66 600.283636 
L 1149.66 600.283636 
L 1132.92 600.283636 
L 1132.92 600.283636 
L 1116.18 600.283636 
L 1116.18 600.283636 
L 1099.44 600.283636 
L 1099.44 600.283636 
L 1082.7 600.283636 
L 1082.7 600.283636 
L 1065.96 600.283636 
L 1065.96 600.283636 
L 1049.22 600.283636 
L 1049.22 600.283636 
L 1032.48 600.283636 
L 1032.48 600.283636 
L 1015.74 600.283636 
L 1015.74 600.283636 
L 999 600.283636 
L 999 600.283636 
L 982.26 600.283636 
L 982.26 600.283636 
L 965.52 600.283636 
L 965.52 600.283636 
L 948.78 600.283636 
L 948.78 600.283636 
L 932.04 600.283636 
L 932.04 600.283636 
L 915.3 600.283636 
L 915.3 600.283636 
L 898.56 600.283636 
L 898.56 600.283636 
L 881.82 600.283636 
L 881.82 600.283636 
L 865.08 600.283636 
L 865.08 600.283636 
L 848.34 600.283636 
L 848.34 600.283636 
L 831.6 600.283636 
L 831.6 600.283636 
L 814.86 600.283636 
L 814.86 600.283636 
L 798.12 600.283636 
L 798.12 600.283636 
L 781.38 600.283636 
L 781.38 600.283636 
L 764.64 600.283636 
L 764.64 600.283636 
L 747.9 600.283636 
L 747.9 600.283636 
L 731.16 600.283636 
L 731.16 600.283636 
L 714.42 600.283636 
L 714.42 600.283636 
L 697.68 600.283636 
L 697.68 600.283636 
L 680.94 600.283636 
L 680.94 600.283636 
L 664.2 600.283636 
L 664.2 600.283636 
L 647.46 600.283636 
L 647.46 600.283636 
L 630.72 600.283636 
L 630.72 600.283636 
L 613.98 600.283636 
L 613.98 600.283636 
L 597.24 600.283636 
L 597.24 600.283636 
L 580.5 600.283636 
L 580.5 600.283636 
L 563.76 600.283636 
L 563.76 600.283636 
L 547.02 600.283636 
L 547.02 600.283636 
L 530.28 600.283636 
L 530.28 600.283636 
L 513.54 600.283636 
L 513.54 600.283636 
L 496.8 600.283636 
L 496.8 600.283636 
L 480.06 600.283636 
L 480.06 600.283636 
L 463.32 600.283636 
L 463.32 600.283636 
L 446.58 600.283636 
L 446.58 600.283636 
L 429.84 600.283636 
L 429.84 600.283636 
L 413.1 600.283636 
L 413.1 600.283636 
L 396.36 600.283636 
L 396.36 600.283636 
L 379.62 600.283636 
L 379.62 600.283636 
L 362.88 600.283636 
L 362.88 600.283636 
L 346.14 600.283636 
L 346.14 600.283636 
L 329.4 600.283636 
L 329.4 600.283636 
L 312.66 600.283636 
L 312.66 600.283636 
L 295.92 600.283636 
L 295.92 600.283636 
L 279.18 600.283636 
L 279.18 600.283636 
L 262.44 600.283636 
L 262.44 600.283636 
L 245.7 600.283636 
L 245.7 600.283636 
L 228.96 600.283636 
L 228.96 600.283636 
L 212.22 600.283636 
L 212.22 600.283636 
L 195.48 600.283636 
L 195.48 600.283636 
L 178.74 600.283636 
L 178.74 600.283636 
z
" clip-path="url(#pcfee1cd4e2)" style="fill: #2ca02c; opacity: 0.5"/>
   </g>
   <g id="matplotlib.axis_1">
    <g id="xtick_1">
     <g id="line2d_1">
      <path d="M 162 600.283636 
L 162 155.52 
" clip-path="url(#pcfee1cd4e2)" style="fill: none; stroke: #b0b0b0; stroke-opacity: 0.5; stroke-width: 0.8; stroke-linecap: square"/>
     </g>
     <g id="line2d_2">
      <defs>
       <path id="m4b32591824" d="M 0 0 
L 0 3.5 
" style="stroke: #000000; stroke-width: 0.8"/>
      </defs>
      <g>
       <use xlink:href="#m4b32591824" x="162" y="600.283636" style="stroke: #000000; stroke-width: 0.8"/>
      </g>
     </g>
     <g id="text_1">
      <!-- 1000 -->
      <g transform="translate(144.185 617.921449)scale(0.14 -0.14)">
       <defs>
        <path id="DejaVuSans-31" d="M 794 531 
L 1825 531 
L 1825 4091 
L 703 3866 
L 703 4441 
L 1819 4666 
L 2450 4666 
L 2450 531 
L 3481 531 
L 3481 0 
L 794 0 
L 794 531 
z
" transform="scale(0.015625)"/>
        <path id="DejaVuSans-30" d="M 2034 4250 
Q 1547 4250 1301 3770 
Q 1056 3291 1056 2328 
Q 1056 1369 1301 889 
Q 1547 409 2034 409 
Q 2525 409 2770 889 
Q 3016 1369 3016 2328 
Q 3016 3291 2770 3770 
Q 2525 4250 2034 4250 
z
M 2034 4750 
Q 2819 4750 3233 4129 
Q 3647 3509 3647 2328 
Q 3647 1150 3233 529 
Q 2819 -91 2034 -91 
Q 1250 -91 836 529 
Q 422 1150 422 2328 
Q 422 3509 836 4129 
Q 1250 4750 2034 4750 
z
" transform="scale(0.015625)"/>
       </defs>
       <use xlink:href="#DejaVuSans-31"/>
       <use xlink:href="#DejaVuSans-30" x="63.623047"/>
       <use xlink:href="#DejaVuSans-30" x="127.246094"/>
       <use xlink:href="#DejaVuSans-30" x="190.869141"/>
      </g>
     </g>
    </g>
    <g id="xtick_2">
     <g id="line2d_3">
      <path d="M 362.88 600.283636 
L 362.88 155.52 
" clip-path="url(#pcfee1cd4e2)" style="fill: none; stroke: #b0b0b0; stroke-opacity: 0.5; stroke-width: 0.8; stroke-linecap: square"/>
     </g>
     <g id="line2d_4">
      <g>
       <use xlink:href="#m4b32591824" x="362.88" y="600.283636" style="stroke: #000000; stroke-width: 0.8"/>
      </g>
     </g>
     <g id="text_2">
      <!-- 2000 -->
      <g transform="translate(345.065 617.921449)scale(0.14 -0.14)">
       <defs>
        <path id="DejaVuSans-32" d="M 1228 531 
L 3431 531 
L 3431 0 
L 469 0 
L 469 531 
Q 828 903 1448 1529 
Q 2069 2156 2228 2338 
Q 2531 2678 2651 2914 
Q 2772 3150 2772 3378 
Q 2772 3750 2511 3984 
Q 2250 4219 1831 4219 
Q 1534 4219 1204 4116 
Q 875 4013 500 3803 
L 500 4441 
Q 881 4594 1212 4672 
Q 1544 4750 1819 4750 
Q 2544 4750 2975 4387 
Q 3406 4025 3406 3419 
Q 3406 3131 3298 2873 
Q 3191 2616 2906 2266 
Q 2828 2175 2409 1742 
Q 1991 1309 1228 531 
z
" transform="scale(0.015625)"/>
       </defs>
       <use xlink:href="#DejaVuSans-32"/>
       <use xlink:href="#DejaVuSans-30" x="63.623047"/>
       <use xlink:href="#DejaVuSans-30" x="127.246094"/>
       <use xlink:href="#DejaVuSans-30" x="190.869141"/>
      </g>
     </g>
    </g>
    <g id="xtick_3">
     <g id="line2d_5">
      <path d="M 563.76 600.283636 
L 563.76 155.52 
" clip-path="url(#pcfee1cd4e2)" style="fill: none; stroke: #b0b0b0; stroke-opacity: 0.5; stroke-width: 0.8; stroke-linecap: square"/>
     </g>
     <g id="line2d_6">
      <g>
       <use xlink:href="#m4b32591824" x="563.76" y="600.283636" style="stroke: #000000; stroke-width: 0.8"/>
      </g>
     </g>
     <g id="text_3">
      <!-- 3000 -->
      <g transform="translate(545.945 617.921449)scale(0.14 -0.14)">
       <defs>
        <path id="DejaVuSans-33" d="M 2597 2516 
Q 3050 2419 3304 2112 
Q 3559 1806 3559 1356 
Q 3559 666 3084 287 
Q 2609 -91 1734 -91 
Q 1441 -91 1130 -33 
Q 819 25 488 141 
L 488 750 
Q 750 597 1062 519 
Q 1375 441 1716 441 
Q 2309 441 2620 675 
Q 2931 909 2931 1356 
Q 2931 1769 2642 2001 
Q 2353 2234 1838 2234 
L 1294 2234 
L 1294 2753 
L 1863 2753 
Q 2328 2753 2575 2939 
Q 2822 3125 2822 3475 
Q 2822 3834 2567 4026 
Q 2313 4219 1838 4219 
Q 1578 4219 1281 4162 
Q 984 4106 628 3988 
L 628 4550 
Q 988 4650 1302 4700 
Q 1616 4750 1894 4750 
Q 2613 4750 3031 4423 
Q 3450 4097 3450 3541 
Q 3450 3153 3228 2886 
Q 3006 2619 2597 2516 
z
" transform="scale(0.015625)"/>
       </defs>
       <use xlink:href="#DejaVuSans-33"/>
       <use xlink:href="#DejaVuSans-30" x="63.623047"/>
       <use xlink:href="#DejaVuSans-30" x="127.246094"/>
       <use xlink:href="#DejaVuSans-30" x="190.869141"/>
      </g>
     </g>
    </g>
    <g id="xtick_4">
     <g id="line2d_7">
      <path d="M 764.64 600.283636 
L 764.64 155.52 
" clip-path="url(#pcfee1cd4e2)" style="fill: none; stroke: #b0b0b0; stroke-opacity: 0.5; stroke-width: 0.8; stroke-linecap: square"/>
     </g>
     <g id="line2d_8">
      <g>
       <use xlink:href="#m4b32591824" x="764.64" y="600.283636" style="stroke: #000000; stroke-width: 0.8"/>
      </g>
     </g>
     <g id="text_4">
      <!-- 4000 -->
      <g transform="translate(746.825 617.921449)scale(0.14 -0.14)">
       <defs>
        <path id="DejaVuSans-34" d="M 2419 4116 
L 825 1625 
L 2419 1625 
L 2419 4116 
z
M 2253 4666 
L 3047 4666 
L 3047 1625 
L 3713 1625 
L 3713 1100 
L 3047 1100 
L 3047 0 
L 2419 0 
L 2419 1100 
L 313 1100 
L 313 1709 
L 2253 4666 
z
" transform="scale(0.015625)"/>
       </defs>
       <use xlink:href="#DejaVuSans-34"/>
       <use xlink:href="#DejaVuSans-30" x="63.623047"/>
       <use xlink:href="#DejaVuSans-30" x="127.246094"/>
       <use xlink:href="#DejaVuSans-30" x="190.869141"/>
      </g>
     </g>
    </g>
    <g id="xtick_5">
     <g id="line2d_9">
      <path d="M 965.52 600.283636 
L 965.52 155.52 
" clip-path="url(#pcfee1cd4e2)" style="fill: none; stroke: #b0b0b0; stroke-opacity: 0.5; stroke-width: 0.8; stroke-linecap: square"/>
     </g>
     <g id="line2d_10">
      <g>
       <use xlink:href="#m4b32591824" x="965.52" y="600.283636" style="stroke: #000000; stroke-width: 0.8"/>
      </g>
     </g>
     <g id="text_5">
      <!-- 5000 -->
      <g transform="translate(947.705 617.921449)scale(0.14 -0.14)">
       <defs>
        <path id="DejaVuSans-35" d="M 691 4666 
L 3169 4666 
L 3169 4134 
L 1269 4134 
L 1269 2991 
Q 1406 3038 1543 3061 
Q 1681 3084 1819 3084 
Q 2600 3084 3056 2656 
Q 3513 2228 3513 1497 
Q 3513 744 3044 326 
Q 2575 -91 1722 -91 
Q 1428 -91 1123 -41 
Q 819 9 494 109 
L 494 744 
Q 775 591 1075 516 
Q 1375 441 1709 441 
Q 2250 441 2565 725 
Q 2881 1009 2881 1497 
Q 2881 1984 2565 2268 
Q 2250 2553 1709 2553 
Q 1456 2553 1204 2497 
Q 953 2441 691 2322 
L 691 4666 
z
" transform="scale(0.015625)"/>
       </defs>
       <use xlink:href="#DejaVuSans-35"/>
       <use xlink:href="#DejaVuSans-30" x="63.623047"/>
       <use xlink:href="#DejaVuSans-30" x="127.246094"/>
       <use xlink:href="#DejaVuSans-30" x="190.869141"/>
      </g>
     </g>
    </g>
    <g id="xtick_6">
     <g id="line2d_11">
      <path d="M 1166.4 600.283636 
L 1166.4 155.52 
" clip-path="url(#pcfee1cd4e2)" style="fill: none; stroke: #b0b0b0; stroke-opacity: 0.5; stroke-width: 0.8; stroke-linecap: square"/>
     </g>
     <g id="line2d_12">
      <g>
       <use xlink:href="#m4b32591824" x="1166.4" y="600.283636" style="stroke: #000000; stroke-width: 0.8"/>
      </g>
     </g>
     <g id="text_6">
      <!-- 6000 -->
      <g transform="translate(1148.585 617.921449)scale(0.14 -0.14)">
       <defs>
        <path id="DejaVuSans-36" d="M 2113 2584 
Q 1688 2584 1439 2293 
Q 1191 2003 1191 1497 
Q 1191 994 1439 701 
Q 1688 409 2113 409 
Q 2538 409 2786 701 
Q 3034 994 3034 1497 
Q 3034 2003 2786 2293 
Q 2538 2584 2113 2584 
z
M 3366 4563 
L 3366 3988 
Q 3128 4100 2886 4159 
Q 2644 4219 2406 4219 
Q 1781 4219 1451 3797 
Q 1122 3375 1075 2522 
Q 1259 2794 1537 2939 
Q 1816 3084 2150 3084 
Q 2853 3084 3261 2657 
Q 3669 2231 3669 1497 
Q 3669 778 3244 343 
Q 2819 -91 2113 -91 
Q 1303 -91 875 529 
Q 447 1150 447 2328 
Q 447 3434 972 4092 
Q 1497 4750 2381 4750 
Q 2619 4750 2861 4703 
Q 3103 4656 3366 4563 
z
" transform="scale(0.015625)"/>
       </defs>
       <use xlink:href="#DejaVuSans-36"/>
       <use xlink:href="#DejaVuSans-30" x="63.623047"/>
       <use xlink:href="#DejaVuSans-30" x="127.246094"/>
       <use xlink:href="#DejaVuSans-30" x="190.869141"/>
      </g>
     </g>
    </g>
    <g id="text_7">
     <!-- $m_{J/psi}$ [MeV] -->
     <g transform="translate(612.81 638.513011)scale(0.18 -0.18)">
      <defs>
       <path id="DejaVuSans-Oblique-6d" d="M 5747 2113 
L 5338 0 
L 4763 0 
L 5166 2094 
Q 5191 2228 5203 2325 
Q 5216 2422 5216 2491 
Q 5216 2772 5059 2928 
Q 4903 3084 4622 3084 
Q 4203 3084 3875 2770 
Q 3547 2456 3450 1953 
L 3066 0 
L 2491 0 
L 2900 2094 
Q 2925 2209 2937 2307 
Q 2950 2406 2950 2484 
Q 2950 2769 2794 2926 
Q 2638 3084 2363 3084 
Q 1938 3084 1609 2770 
Q 1281 2456 1184 1953 
L 800 0 
L 225 0 
L 909 3500 
L 1484 3500 
L 1375 2956 
Q 1609 3263 1923 3423 
Q 2238 3584 2597 3584 
Q 2978 3584 3223 3384 
Q 3469 3184 3519 2828 
Q 3781 3197 4126 3390 
Q 4472 3584 4856 3584 
Q 5306 3584 5551 3325 
Q 5797 3066 5797 2591 
Q 5797 2488 5784 2364 
Q 5772 2241 5747 2113 
z
" transform="scale(0.015625)"/>
       <path id="DejaVuSans-Oblique-4a" d="M 1069 4666 
L 1703 4666 
L 856 325 
Q 691 -522 298 -901 
Q -94 -1281 -800 -1281 
L -1050 -1281 
L -947 -750 
L -750 -750 
Q -328 -750 -109 -509 
Q 109 -269 225 325 
L 1069 4666 
z
" transform="scale(0.015625)"/>
       <path id="DejaVuSans-2f" d="M 1625 4666 
L 2156 4666 
L 531 -594 
L 0 -594 
L 1625 4666 
z
" transform="scale(0.015625)"/>
       <path id="DejaVuSans-Oblique-70" d="M 3175 2156 
Q 3175 2616 2975 2859 
Q 2775 3103 2400 3103 
Q 2144 3103 1911 2972 
Q 1678 2841 1497 2591 
Q 1319 2344 1212 1994 
Q 1106 1644 1106 1300 
Q 1106 863 1306 627 
Q 1506 391 1875 391 
Q 2147 391 2380 519 
Q 2613 647 2778 891 
Q 2956 1147 3065 1494 
Q 3175 1841 3175 2156 
z
M 1394 2969 
Q 1625 3272 1939 3428 
Q 2253 3584 2638 3584 
Q 3175 3584 3472 3232 
Q 3769 2881 3769 2247 
Q 3769 1728 3584 1258 
Q 3400 788 3053 416 
Q 2822 169 2531 39 
Q 2241 -91 1919 -91 
Q 1547 -91 1294 64 
Q 1041 219 916 525 
L 556 -1331 
L -19 -1331 
L 922 3500 
L 1497 3500 
L 1394 2969 
z
" transform="scale(0.015625)"/>
       <path id="DejaVuSans-Oblique-73" d="M 3200 3397 
L 3091 2853 
Q 2863 2978 2609 3040 
Q 2356 3103 2088 3103 
Q 1634 3103 1373 2948 
Q 1113 2794 1113 2528 
Q 1113 2219 1719 2053 
Q 1766 2041 1788 2034 
L 1972 1978 
Q 2547 1819 2739 1644 
Q 2931 1469 2931 1166 
Q 2931 609 2489 259 
Q 2047 -91 1331 -91 
Q 1053 -91 747 -37 
Q 441 16 72 128 
L 184 722 
Q 500 559 806 475 
Q 1113 391 1394 391 
Q 1816 391 2080 572 
Q 2344 753 2344 1031 
Q 2344 1331 1650 1516 
L 1591 1531 
L 1394 1581 
Q 956 1697 753 1886 
Q 550 2075 550 2369 
Q 550 2928 970 3256 
Q 1391 3584 2113 3584 
Q 2397 3584 2667 3537 
Q 2938 3491 3200 3397 
z
" transform="scale(0.015625)"/>
       <path id="DejaVuSans-Oblique-69" d="M 1172 4863 
L 1747 4863 
L 1606 4134 
L 1031 4134 
L 1172 4863 
z
M 909 3500 
L 1484 3500 
L 800 0 
L 225 0 
L 909 3500 
z
" transform="scale(0.015625)"/>
       <path id="DejaVuSans-20" transform="scale(0.015625)"/>
       <path id="DejaVuSans-5b" d="M 550 4863 
L 1875 4863 
L 1875 4416 
L 1125 4416 
L 1125 -397 
L 1875 -397 
L 1875 -844 
L 550 -844 
L 550 4863 
z
" transform="scale(0.015625)"/>
       <path id="DejaVuSans-4d" d="M 628 4666 
L 1569 4666 
L 2759 1491 
L 3956 4666 
L 4897 4666 
L 4897 0 
L 4281 0 
L 4281 4097 
L 3078 897 
L 2444 897 
L 1241 4097 
L 1241 0 
L 628 0 
L 628 4666 
z
" transform="scale(0.015625)"/>
       <path id="DejaVuSans-65" d="M 3597 1894 
L 3597 1613 
L 953 1613 
Q 991 1019 1311 708 
Q 1631 397 2203 397 
Q 2534 397 2845 478 
Q 3156 559 3463 722 
L 3463 178 
Q 3153 47 2828 -22 
Q 2503 -91 2169 -91 
Q 1331 -91 842 396 
Q 353 884 353 1716 
Q 353 2575 817 3079 
Q 1281 3584 2069 3584 
Q 2775 3584 3186 3129 
Q 3597 2675 3597 1894 
z
M 3022 2063 
Q 3016 2534 2758 2815 
Q 2500 3097 2075 3097 
Q 1594 3097 1305 2825 
Q 1016 2553 972 2059 
L 3022 2063 
z
" transform="scale(0.015625)"/>
       <path id="DejaVuSans-56" d="M 1831 0 
L 50 4666 
L 709 4666 
L 2188 738 
L 3669 4666 
L 4325 4666 
L 2547 0 
L 1831 0 
z
" transform="scale(0.015625)"/>
       <path id="DejaVuSans-5d" d="M 1947 4863 
L 1947 -844 
L 622 -844 
L 622 -397 
L 1369 -397 
L 1369 4416 
L 622 4416 
L 622 4863 
L 1947 4863 
z
" transform="scale(0.015625)"/>
      </defs>
      <use xlink:href="#DejaVuSans-Oblique-6d" transform="translate(0 0.015625)"/>
      <use xlink:href="#DejaVuSans-Oblique-4a" transform="translate(97.412109 -16.390625)scale(0.7)"/>
      <use xlink:href="#DejaVuSans-2f" transform="translate(118.056641 -16.390625)scale(0.7)"/>
      <use xlink:href="#DejaVuSans-Oblique-70" transform="translate(141.640625 -16.390625)scale(0.7)"/>
      <use xlink:href="#DejaVuSans-Oblique-73" transform="translate(186.074219 -16.390625)scale(0.7)"/>
      <use xlink:href="#DejaVuSans-Oblique-69" transform="translate(222.543945 -16.390625)scale(0.7)"/>
      <use xlink:href="#DejaVuSans-20" transform="translate(244.726562 0.015625)"/>
      <use xlink:href="#DejaVuSans-5b" transform="translate(276.513672 0.015625)"/>
      <use xlink:href="#DejaVuSans-4d" transform="translate(315.527344 0.015625)"/>
      <use xlink:href="#DejaVuSans-65" transform="translate(401.806641 0.015625)"/>
      <use xlink:href="#DejaVuSans-56" transform="translate(463.330078 0.015625)"/>
      <use xlink:href="#DejaVuSans-5d" transform="translate(531.738281 0.015625)"/>
     </g>
    </g>
   </g>
   <g id="matplotlib.axis_2">
    <g id="ytick_1">
     <g id="line2d_13">
      <path d="M 162 600.283636 
L 1166.4 600.283636 
" clip-path="url(#pcfee1cd4e2)" style="fill: none; stroke: #b0b0b0; stroke-opacity: 0.5; stroke-width: 0.8; stroke-linecap: square"/>
     </g>
     <g id="line2d_14">
      <defs>
       <path id="mca8136f6ec" d="M 0 0 
L -3.5 0 
" style="stroke: #000000; stroke-width: 0.8"/>
      </defs>
      <g>
       <use xlink:href="#mca8136f6ec" x="162" y="600.283636" style="stroke: #000000; stroke-width: 0.8"/>
      </g>
     </g>
     <g id="text_8">
      <!-- 0.000 -->
      <g transform="translate(114.920625 605.602543)scale(0.14 -0.14)">
       <defs>
        <path id="DejaVuSans-2e" d="M 684 794 
L 1344 794 
L 1344 0 
L 684 0 
L 684 794 
z
" transform="scale(0.015625)"/>
       </defs>
       <use xlink:href="#DejaVuSans-30"/>
       <use xlink:href="#DejaVuSans-2e" x="63.623047"/>
       <use xlink:href="#DejaVuSans-30" x="95.410156"/>
       <use xlink:href="#DejaVuSans-30" x="159.033203"/>
       <use xlink:href="#DejaVuSans-30" x="222.65625"/>
      </g>
     </g>
    </g>
    <g id="ytick_2">
     <g id="line2d_15">
      <path d="M 162 536.441237 
L 1166.4 536.441237 
" clip-path="url(#pcfee1cd4e2)" style="fill: none; stroke: #b0b0b0; stroke-opacity: 0.5; stroke-width: 0.8; stroke-linecap: square"/>
     </g>
     <g id="line2d_16">
      <g>
       <use xlink:href="#mca8136f6ec" x="162" y="536.441237" style="stroke: #000000; stroke-width: 0.8"/>
      </g>
     </g>
     <g id="text_9">
      <!-- 0.001 -->
      <g transform="translate(114.920625 541.760143)scale(0.14 -0.14)">
       <use xlink:href="#DejaVuSans-30"/>
       <use xlink:href="#DejaVuSans-2e" x="63.623047"/>
       <use xlink:href="#DejaVuSans-30" x="95.410156"/>
       <use xlink:href="#DejaVuSans-30" x="159.033203"/>
       <use xlink:href="#DejaVuSans-31" x="222.65625"/>
      </g>
     </g>
    </g>
    <g id="ytick_3">
     <g id="line2d_17">
      <path d="M 162 472.598838 
L 1166.4 472.598838 
" clip-path="url(#pcfee1cd4e2)" style="fill: none; stroke: #b0b0b0; stroke-opacity: 0.5; stroke-width: 0.8; stroke-linecap: square"/>
     </g>
     <g id="line2d_18">
      <g>
       <use xlink:href="#mca8136f6ec" x="162" y="472.598838" style="stroke: #000000; stroke-width: 0.8"/>
      </g>
     </g>
     <g id="text_10">
      <!-- 0.002 -->
      <g transform="translate(114.920625 477.917744)scale(0.14 -0.14)">
       <use xlink:href="#DejaVuSans-30"/>
       <use xlink:href="#DejaVuSans-2e" x="63.623047"/>
       <use xlink:href="#DejaVuSans-30" x="95.410156"/>
       <use xlink:href="#DejaVuSans-30" x="159.033203"/>
       <use xlink:href="#DejaVuSans-32" x="222.65625"/>
      </g>
     </g>
    </g>
    <g id="ytick_4">
     <g id="line2d_19">
      <path d="M 162 408.756438 
L 1166.4 408.756438 
" clip-path="url(#pcfee1cd4e2)" style="fill: none; stroke: #b0b0b0; stroke-opacity: 0.5; stroke-width: 0.8; stroke-linecap: square"/>
     </g>
     <g id="line2d_20">
      <g>
       <use xlink:href="#mca8136f6ec" x="162" y="408.756438" style="stroke: #000000; stroke-width: 0.8"/>
      </g>
     </g>
     <g id="text_11">
      <!-- 0.003 -->
      <g transform="translate(114.920625 414.075345)scale(0.14 -0.14)">
       <use xlink:href="#DejaVuSans-30"/>
       <use xlink:href="#DejaVuSans-2e" x="63.623047"/>
       <use xlink:href="#DejaVuSans-30" x="95.410156"/>
       <use xlink:href="#DejaVuSans-30" x="159.033203"/>
       <use xlink:href="#DejaVuSans-33" x="222.65625"/>
      </g>
     </g>
    </g>
    <g id="ytick_5">
     <g id="line2d_21">
      <path d="M 162 344.914039 
L 1166.4 344.914039 
" clip-path="url(#pcfee1cd4e2)" style="fill: none; stroke: #b0b0b0; stroke-opacity: 0.5; stroke-width: 0.8; stroke-linecap: square"/>
     </g>
     <g id="line2d_22">
      <g>
       <use xlink:href="#mca8136f6ec" x="162" y="344.914039" style="stroke: #000000; stroke-width: 0.8"/>
      </g>
     </g>
     <g id="text_12">
      <!-- 0.004 -->
      <g transform="translate(114.920625 350.232945)scale(0.14 -0.14)">
       <use xlink:href="#DejaVuSans-30"/>
       <use xlink:href="#DejaVuSans-2e" x="63.623047"/>
       <use xlink:href="#DejaVuSans-30" x="95.410156"/>
       <use xlink:href="#DejaVuSans-30" x="159.033203"/>
       <use xlink:href="#DejaVuSans-34" x="222.65625"/>
      </g>
     </g>
    </g>
    <g id="ytick_6">
     <g id="line2d_23">
      <path d="M 162 281.07164 
L 1166.4 281.07164 
" clip-path="url(#pcfee1cd4e2)" style="fill: none; stroke: #b0b0b0; stroke-opacity: 0.5; stroke-width: 0.8; stroke-linecap: square"/>
     </g>
     <g id="line2d_24">
      <g>
       <use xlink:href="#mca8136f6ec" x="162" y="281.07164" style="stroke: #000000; stroke-width: 0.8"/>
      </g>
     </g>
     <g id="text_13">
      <!-- 0.005 -->
      <g transform="translate(114.920625 286.390546)scale(0.14 -0.14)">
       <use xlink:href="#DejaVuSans-30"/>
       <use xlink:href="#DejaVuSans-2e" x="63.623047"/>
       <use xlink:href="#DejaVuSans-30" x="95.410156"/>
       <use xlink:href="#DejaVuSans-30" x="159.033203"/>
       <use xlink:href="#DejaVuSans-35" x="222.65625"/>
      </g>
     </g>
    </g>
    <g id="ytick_7">
     <g id="line2d_25">
      <path d="M 162 217.22924 
L 1166.4 217.22924 
" clip-path="url(#pcfee1cd4e2)" style="fill: none; stroke: #b0b0b0; stroke-opacity: 0.5; stroke-width: 0.8; stroke-linecap: square"/>
     </g>
     <g id="line2d_26">
      <g>
       <use xlink:href="#mca8136f6ec" x="162" y="217.22924" style="stroke: #000000; stroke-width: 0.8"/>
      </g>
     </g>
     <g id="text_14">
      <!-- 0.006 -->
      <g transform="translate(114.920625 222.548147)scale(0.14 -0.14)">
       <use xlink:href="#DejaVuSans-30"/>
       <use xlink:href="#DejaVuSans-2e" x="63.623047"/>
       <use xlink:href="#DejaVuSans-30" x="95.410156"/>
       <use xlink:href="#DejaVuSans-30" x="159.033203"/>
       <use xlink:href="#DejaVuSans-36" x="222.65625"/>
      </g>
     </g>
    </g>
    <g id="text_15">
     <!-- Counts/Bin -->
     <g transform="translate(107.177188 426.728224)rotate(-90)scale(0.18 -0.18)">
      <defs>
       <path id="DejaVuSans-43" d="M 4122 4306 
L 4122 3641 
Q 3803 3938 3442 4084 
Q 3081 4231 2675 4231 
Q 1875 4231 1450 3742 
Q 1025 3253 1025 2328 
Q 1025 1406 1450 917 
Q 1875 428 2675 428 
Q 3081 428 3442 575 
Q 3803 722 4122 1019 
L 4122 359 
Q 3791 134 3420 21 
Q 3050 -91 2638 -91 
Q 1578 -91 968 557 
Q 359 1206 359 2328 
Q 359 3453 968 4101 
Q 1578 4750 2638 4750 
Q 3056 4750 3426 4639 
Q 3797 4528 4122 4306 
z
" transform="scale(0.015625)"/>
       <path id="DejaVuSans-6f" d="M 1959 3097 
Q 1497 3097 1228 2736 
Q 959 2375 959 1747 
Q 959 1119 1226 758 
Q 1494 397 1959 397 
Q 2419 397 2687 759 
Q 2956 1122 2956 1747 
Q 2956 2369 2687 2733 
Q 2419 3097 1959 3097 
z
M 1959 3584 
Q 2709 3584 3137 3096 
Q 3566 2609 3566 1747 
Q 3566 888 3137 398 
Q 2709 -91 1959 -91 
Q 1206 -91 779 398 
Q 353 888 353 1747 
Q 353 2609 779 3096 
Q 1206 3584 1959 3584 
z
" transform="scale(0.015625)"/>
       <path id="DejaVuSans-75" d="M 544 1381 
L 544 3500 
L 1119 3500 
L 1119 1403 
Q 1119 906 1312 657 
Q 1506 409 1894 409 
Q 2359 409 2629 706 
Q 2900 1003 2900 1516 
L 2900 3500 
L 3475 3500 
L 3475 0 
L 2900 0 
L 2900 538 
Q 2691 219 2414 64 
Q 2138 -91 1772 -91 
Q 1169 -91 856 284 
Q 544 659 544 1381 
z
M 1991 3584 
L 1991 3584 
z
" transform="scale(0.015625)"/>
       <path id="DejaVuSans-6e" d="M 3513 2113 
L 3513 0 
L 2938 0 
L 2938 2094 
Q 2938 2591 2744 2837 
Q 2550 3084 2163 3084 
Q 1697 3084 1428 2787 
Q 1159 2491 1159 1978 
L 1159 0 
L 581 0 
L 581 3500 
L 1159 3500 
L 1159 2956 
Q 1366 3272 1645 3428 
Q 1925 3584 2291 3584 
Q 2894 3584 3203 3211 
Q 3513 2838 3513 2113 
z
" transform="scale(0.015625)"/>
       <path id="DejaVuSans-74" d="M 1172 4494 
L 1172 3500 
L 2356 3500 
L 2356 3053 
L 1172 3053 
L 1172 1153 
Q 1172 725 1289 603 
Q 1406 481 1766 481 
L 2356 481 
L 2356 0 
L 1766 0 
Q 1100 0 847 248 
Q 594 497 594 1153 
L 594 3053 
L 172 3053 
L 172 3500 
L 594 3500 
L 594 4494 
L 1172 4494 
z
" transform="scale(0.015625)"/>
       <path id="DejaVuSans-73" d="M 2834 3397 
L 2834 2853 
Q 2591 2978 2328 3040 
Q 2066 3103 1784 3103 
Q 1356 3103 1142 2972 
Q 928 2841 928 2578 
Q 928 2378 1081 2264 
Q 1234 2150 1697 2047 
L 1894 2003 
Q 2506 1872 2764 1633 
Q 3022 1394 3022 966 
Q 3022 478 2636 193 
Q 2250 -91 1575 -91 
Q 1294 -91 989 -36 
Q 684 19 347 128 
L 347 722 
Q 666 556 975 473 
Q 1284 391 1588 391 
Q 1994 391 2212 530 
Q 2431 669 2431 922 
Q 2431 1156 2273 1281 
Q 2116 1406 1581 1522 
L 1381 1569 
Q 847 1681 609 1914 
Q 372 2147 372 2553 
Q 372 3047 722 3315 
Q 1072 3584 1716 3584 
Q 2034 3584 2315 3537 
Q 2597 3491 2834 3397 
z
" transform="scale(0.015625)"/>
       <path id="DejaVuSans-42" d="M 1259 2228 
L 1259 519 
L 2272 519 
Q 2781 519 3026 730 
Q 3272 941 3272 1375 
Q 3272 1813 3026 2020 
Q 2781 2228 2272 2228 
L 1259 2228 
z
M 1259 4147 
L 1259 2741 
L 2194 2741 
Q 2656 2741 2882 2914 
Q 3109 3088 3109 3444 
Q 3109 3797 2882 3972 
Q 2656 4147 2194 4147 
L 1259 4147 
z
M 628 4666 
L 2241 4666 
Q 2963 4666 3353 4366 
Q 3744 4066 3744 3513 
Q 3744 3084 3544 2831 
Q 3344 2578 2956 2516 
Q 3422 2416 3680 2098 
Q 3938 1781 3938 1306 
Q 3938 681 3513 340 
Q 3088 0 2303 0 
L 628 0 
L 628 4666 
z
" transform="scale(0.015625)"/>
       <path id="DejaVuSans-69" d="M 603 3500 
L 1178 3500 
L 1178 0 
L 603 0 
L 603 3500 
z
M 603 4863 
L 1178 4863 
L 1178 4134 
L 603 4134 
L 603 4863 
z
" transform="scale(0.015625)"/>
      </defs>
      <use xlink:href="#DejaVuSans-43"/>
      <use xlink:href="#DejaVuSans-6f" x="69.824219"/>
      <use xlink:href="#DejaVuSans-75" x="131.005859"/>
      <use xlink:href="#DejaVuSans-6e" x="194.384766"/>
      <use xlink:href="#DejaVuSans-74" x="257.763672"/>
      <use xlink:href="#DejaVuSans-73" x="296.972656"/>
      <use xlink:href="#DejaVuSans-2f" x="349.072266"/>
      <use xlink:href="#DejaVuSans-42" x="382.763672"/>
      <use xlink:href="#DejaVuSans-69" x="451.367188"/>
      <use xlink:href="#DejaVuSans-6e" x="479.150391"/>
     </g>
    </g>
   </g>
   <g id="patch_6">
    <path d="M 162 600.283636 
L 162 600.283636 
L 182.088 600.283636 
L 182.088 600.283636 
L 202.176 600.283636 
L 202.176 600.283636 
L 222.264 600.283636 
L 222.264 600.283636 
L 242.352 600.283636 
L 242.352 600.283636 
L 262.44 600.283636 
L 262.44 600.283636 
L 282.528 600.283636 
L 282.528 598.759951 
L 302.616 598.759951 
L 302.616 598.759951 
L 322.704 598.759951 
L 322.704 597.236266 
L 342.792 597.236266 
L 342.792 598.759951 
L 362.88 598.759951 
L 362.88 598.759951 
L 382.968 598.759951 
L 382.968 598.759951 
L 403.056 598.759951 
L 403.056 597.236266 
L 423.144 597.236266 
L 423.144 592.665212 
L 443.232 592.665212 
L 443.232 598.759951 
L 463.32 598.759951 
L 463.32 592.665212 
L 483.408 592.665212 
L 483.408 589.617842 
L 503.496 589.617842 
L 503.496 592.665212 
L 523.584 592.665212 
L 523.584 583.523102 
L 543.672 583.523102 
L 543.672 557.620458 
L 563.76 557.620458 
L 563.76 176.699221 
L 583.848 176.699221 
L 583.848 496.67306 
L 603.936 496.67306 
L 603.936 598.759951 
L 624.024 598.759951 
L 624.024 598.759951 
L 644.112 598.759951 
L 644.112 600.283636 
L 664.2 600.283636 
L 664.2 600.283636 
L 684.288 600.283636 
L 684.288 600.283636 
L 704.376 600.283636 
L 704.376 600.283636 
L 724.464 600.283636 
L 724.464 600.283636 
L 744.552 600.283636 
L 744.552 600.283636 
L 764.64 600.283636 
L 764.64 600.283636 
" clip-path="url(#pcfee1cd4e2)" style="fill: none; stroke: #000000; stroke-linejoin: miter"/>
   </g>
   <g id="patch_7">
    <path d="M 162 600.283636 
L 162 155.52 
" style="fill: none; stroke: #000000; stroke-width: 0.8; stroke-linejoin: miter; stroke-linecap: square"/>
   </g>
   <g id="patch_8">
    <path d="M 1166.4 600.283636 
L 1166.4 155.52 
" style="fill: none; stroke: #000000; stroke-width: 0.8; stroke-linejoin: miter; stroke-linecap: square"/>
   </g>
   <g id="patch_9">
    <path d="M 162 600.283636 
L 1166.4 600.283636 
" style="fill: none; stroke: #000000; stroke-width: 0.8; stroke-linejoin: miter; stroke-linecap: square"/>
   </g>
   <g id="patch_10">
    <path d="M 162 155.52 
L 1166.4 155.52 
" style="fill: none; stroke: #000000; stroke-width: 0.8; stroke-linejoin: miter; stroke-linecap: square"/>
   </g>
   <g id="legend_1">
    <g id="patch_11">
     <path d="M 1014.55875 275.6025 
L 1153.8 275.6025 
Q 1157.4 275.6025 1157.4 272.0025 
L 1157.4 168.12 
Q 1157.4 164.52 1153.8 164.52 
L 1014.55875 164.52 
Q 1010.95875 164.52 1010.95875 168.12 
L 1010.95875 272.0025 
Q 1010.95875 275.6025 1014.55875 275.6025 
z
" style="fill: #ffffff; opacity: 0.8; stroke: #cccccc; stroke-linejoin: miter"/>
    </g>
    <g id="patch_12">
     <path d="M 1018.15875 185.397187 
L 1054.15875 185.397187 
L 1054.15875 172.797187 
L 1018.15875 172.797187 
z
" style="fill: #1f77b4; opacity: 0.5"/>
    </g>
    <g id="text_16">
     <!-- no reco -->
     <g transform="translate(1068.55875 185.397187)scale(0.18 -0.18)">
      <defs>
       <path id="DejaVuSans-72" d="M 2631 2963 
Q 2534 3019 2420 3045 
Q 2306 3072 2169 3072 
Q 1681 3072 1420 2755 
Q 1159 2438 1159 1844 
L 1159 0 
L 581 0 
L 581 3500 
L 1159 3500 
L 1159 2956 
Q 1341 3275 1631 3429 
Q 1922 3584 2338 3584 
Q 2397 3584 2469 3576 
Q 2541 3569 2628 3553 
L 2631 2963 
z
" transform="scale(0.015625)"/>
       <path id="DejaVuSans-63" d="M 3122 3366 
L 3122 2828 
Q 2878 2963 2633 3030 
Q 2388 3097 2138 3097 
Q 1578 3097 1268 2742 
Q 959 2388 959 1747 
Q 959 1106 1268 751 
Q 1578 397 2138 397 
Q 2388 397 2633 464 
Q 2878 531 3122 666 
L 3122 134 
Q 2881 22 2623 -34 
Q 2366 -91 2075 -91 
Q 1284 -91 818 406 
Q 353 903 353 1747 
Q 353 2603 823 3093 
Q 1294 3584 2113 3584 
Q 2378 3584 2631 3529 
Q 2884 3475 3122 3366 
z
" transform="scale(0.015625)"/>
      </defs>
      <use xlink:href="#DejaVuSans-6e"/>
      <use xlink:href="#DejaVuSans-6f" x="63.378906"/>
      <use xlink:href="#DejaVuSans-20" x="124.560547"/>
      <use xlink:href="#DejaVuSans-72" x="156.347656"/>
      <use xlink:href="#DejaVuSans-65" x="195.210938"/>
      <use xlink:href="#DejaVuSans-63" x="256.734375"/>
      <use xlink:href="#DejaVuSans-6f" x="311.714844"/>
     </g>
    </g>
    <g id="patch_13">
     <path d="M 1018.15875 211.817812 
L 1054.15875 211.817812 
L 1054.15875 199.217812 
L 1018.15875 199.217812 
L 1018.15875 211.817812 
z
" style="fill: none; stroke: #000000; stroke-linejoin: miter"/>
    </g>
    <g id="text_17">
     <!-- true reco -->
     <g transform="translate(1068.55875 211.817812)scale(0.18 -0.18)">
      <use xlink:href="#DejaVuSans-74"/>
      <use xlink:href="#DejaVuSans-72" x="39.208984"/>
      <use xlink:href="#DejaVuSans-75" x="80.322266"/>
      <use xlink:href="#DejaVuSans-65" x="143.701172"/>
      <use xlink:href="#DejaVuSans-20" x="205.224609"/>
      <use xlink:href="#DejaVuSans-72" x="237.011719"/>
      <use xlink:href="#DejaVuSans-65" x="275.875"/>
      <use xlink:href="#DejaVuSans-63" x="337.398438"/>
      <use xlink:href="#DejaVuSans-6f" x="392.378906"/>
     </g>
    </g>
    <g id="patch_14">
     <path d="M 1018.15875 238.238437 
L 1054.15875 238.238437 
L 1054.15875 225.638437 
L 1018.15875 225.638437 
z
" style="fill: #ff7f0e; opacity: 0.5"/>
    </g>
    <g id="text_18">
     <!-- std reco -->
     <g transform="translate(1068.55875 238.238437)scale(0.18 -0.18)">
      <defs>
       <path id="DejaVuSans-64" d="M 2906 2969 
L 2906 4863 
L 3481 4863 
L 3481 0 
L 2906 0 
L 2906 525 
Q 2725 213 2448 61 
Q 2172 -91 1784 -91 
Q 1150 -91 751 415 
Q 353 922 353 1747 
Q 353 2572 751 3078 
Q 1150 3584 1784 3584 
Q 2172 3584 2448 3432 
Q 2725 3281 2906 2969 
z
M 947 1747 
Q 947 1113 1208 752 
Q 1469 391 1925 391 
Q 2381 391 2643 752 
Q 2906 1113 2906 1747 
Q 2906 2381 2643 2742 
Q 2381 3103 1925 3103 
Q 1469 3103 1208 2742 
Q 947 2381 947 1747 
z
" transform="scale(0.015625)"/>
      </defs>
      <use xlink:href="#DejaVuSans-73"/>
      <use xlink:href="#DejaVuSans-74" x="52.099609"/>
      <use xlink:href="#DejaVuSans-64" x="91.308594"/>
      <use xlink:href="#DejaVuSans-20" x="154.785156"/>
      <use xlink:href="#DejaVuSans-72" x="186.572266"/>
      <use xlink:href="#DejaVuSans-65" x="225.435547"/>
      <use xlink:href="#DejaVuSans-63" x="286.958984"/>
      <use xlink:href="#DejaVuSans-6f" x="341.939453"/>
     </g>
    </g>
    <g id="patch_15">
     <path d="M 1018.15875 264.659062 
L 1054.15875 264.659062 
L 1054.15875 252.059062 
L 1018.15875 252.059062 
z
" style="fill: #2ca02c; opacity: 0.5"/>
    </g>
    <g id="text_19">
     <!-- our reco -->
     <g transform="translate(1068.55875 264.659062)scale(0.18 -0.18)">
      <use xlink:href="#DejaVuSans-6f"/>
      <use xlink:href="#DejaVuSans-75" x="61.181641"/>
      <use xlink:href="#DejaVuSans-72" x="124.560547"/>
      <use xlink:href="#DejaVuSans-20" x="165.673828"/>
      <use xlink:href="#DejaVuSans-72" x="197.460938"/>
      <use xlink:href="#DejaVuSans-65" x="236.324219"/>
      <use xlink:href="#DejaVuSans-63" x="297.847656"/>
      <use xlink:href="#DejaVuSans-6f" x="352.828125"/>
     </g>
    </g>
   </g>
  </g>
  <g id="axes_2">
   <g id="patch_16">
    <path d="M 162 1134 
L 1166.4 1134 
L 1166.4 689.236364 
L 162 689.236364 
z
" style="fill: #ffffff"/>
   </g>
   <g id="patch_17">
    <path d="M 162 1134 
L 162 1130.53047 
L 191.016 1130.53047 
L 191.016 1127.060939 
L 220.032 1127.060939 
L 220.032 1134 
L 249.048 1134 
L 249.048 1123.591409 
L 278.064 1123.591409 
L 278.064 1127.060939 
L 307.08 1127.060939 
L 307.08 1130.53047 
L 336.096 1130.53047 
L 336.096 1127.060939 
L 365.112 1127.060939 
L 365.112 1123.591409 
L 394.128 1123.591409 
L 394.128 1116.652348 
L 423.144 1116.652348 
L 423.144 1123.591409 
L 452.16 1123.591409 
L 452.16 1123.591409 
L 481.176 1123.591409 
L 481.176 1127.060939 
L 510.192 1127.060939 
L 510.192 1099.304695 
L 539.208 1099.304695 
L 539.208 1120.121878 
L 568.224 1120.121878 
L 568.224 1106.243756 
L 597.24 1106.243756 
L 597.24 1088.896104 
L 626.256 1088.896104 
L 626.256 1113.182817 
L 655.272 1113.182817 
L 655.272 1095.835165 
L 684.288 1095.835165 
L 684.288 1085.426573 
L 713.304 1085.426573 
L 713.304 1099.304695 
L 742.32 1099.304695 
L 742.32 1081.957043 
L 771.336 1081.957043 
L 771.336 1071.548452 
L 800.352 1071.548452 
L 800.352 1061.13986 
L 829.368 1061.13986 
L 829.368 1068.078921 
L 858.384 1068.078921 
L 858.384 1061.13986 
L 887.4 1061.13986 
L 887.4 1075.017982 
L 916.416 1075.017982 
L 916.416 1095.835165 
L 945.432 1095.835165 
L 945.432 1123.591409 
L 974.448 1123.591409 
L 974.448 1127.060939 
L 1003.464 1127.060939 
L 1003.464 1120.121878 
L 1032.48 1120.121878 
L 1032.48 1134 
L 1003.464 1134 
L 1003.464 1134 
L 974.448 1134 
L 974.448 1134 
L 945.432 1134 
L 945.432 1134 
L 916.416 1134 
L 916.416 1134 
L 887.4 1134 
L 887.4 1134 
L 858.384 1134 
L 858.384 1134 
L 829.368 1134 
L 829.368 1134 
L 800.352 1134 
L 800.352 1134 
L 771.336 1134 
L 771.336 1134 
L 742.32 1134 
L 742.32 1134 
L 713.304 1134 
L 713.304 1134 
L 684.288 1134 
L 684.288 1134 
L 655.272 1134 
L 655.272 1134 
L 626.256 1134 
L 626.256 1134 
L 597.24 1134 
L 597.24 1134 
L 568.224 1134 
L 568.224 1134 
L 539.208 1134 
L 539.208 1134 
L 510.192 1134 
L 510.192 1134 
L 481.176 1134 
L 481.176 1134 
L 452.16 1134 
L 452.16 1134 
L 423.144 1134 
L 423.144 1134 
L 394.128 1134 
L 394.128 1134 
L 365.112 1134 
L 365.112 1134 
L 336.096 1134 
L 336.096 1134 
L 307.08 1134 
L 307.08 1134 
L 278.064 1134 
L 278.064 1134 
L 249.048 1134 
L 249.048 1134 
L 220.032 1134 
L 220.032 1134 
L 191.016 1134 
L 191.016 1134 
z
" clip-path="url(#p47f022a8b3)" style="fill: #1f77b4; opacity: 0.5"/>
   </g>
   <g id="patch_18">
    <path d="M 162 1134 
L 162 1134 
L 191.016 1134 
L 191.016 1128.088324 
L 220.032 1128.088324 
L 220.032 1134 
L 249.048 1134 
L 249.048 1130.058883 
L 278.064 1130.058883 
L 278.064 1132.029441 
L 307.08 1132.029441 
L 307.08 1132.029441 
L 336.096 1132.029441 
L 336.096 1128.088324 
L 365.112 1128.088324 
L 365.112 1128.088324 
L 394.128 1128.088324 
L 394.128 1130.058883 
L 423.144 1130.058883 
L 423.144 1124.147207 
L 452.16 1124.147207 
L 452.16 1130.058883 
L 481.176 1130.058883 
L 481.176 1122.176649 
L 510.192 1122.176649 
L 510.192 1126.117766 
L 539.208 1126.117766 
L 539.208 1126.117766 
L 568.224 1126.117766 
L 568.224 1132.029441 
L 597.24 1132.029441 
L 597.24 1116.264973 
L 626.256 1116.264973 
L 626.256 1126.117766 
L 655.272 1126.117766 
L 655.272 1118.235531 
L 684.288 1118.235531 
L 684.288 1128.088324 
L 713.304 1128.088324 
L 713.304 1106.41218 
L 742.32 1106.41218 
L 742.32 1098.529946 
L 771.336 1098.529946 
L 771.336 1096.559387 
L 800.352 1096.559387 
L 800.352 1098.529946 
L 829.368 1098.529946 
L 829.368 1057.148216 
L 858.384 1057.148216 
L 858.384 1009.85481 
L 887.4 1009.85481 
L 887.4 931.032468 
L 916.416 931.032468 
L 916.416 988.178666 
L 945.432 988.178666 
L 945.432 1128.088324 
L 974.448 1128.088324 
L 974.448 1134 
L 1003.464 1134 
L 1003.464 1134 
L 1032.48 1134 
L 1032.48 1134 
L 1003.464 1134 
L 1003.464 1134 
L 974.448 1134 
L 974.448 1134 
L 945.432 1134 
L 945.432 1134 
L 916.416 1134 
L 916.416 1134 
L 887.4 1134 
L 887.4 1134 
L 858.384 1134 
L 858.384 1134 
L 829.368 1134 
L 829.368 1134 
L 800.352 1134 
L 800.352 1134 
L 771.336 1134 
L 771.336 1134 
L 742.32 1134 
L 742.32 1134 
L 713.304 1134 
L 713.304 1134 
L 684.288 1134 
L 684.288 1134 
L 655.272 1134 
L 655.272 1134 
L 626.256 1134 
L 626.256 1134 
L 597.24 1134 
L 597.24 1134 
L 568.224 1134 
L 568.224 1134 
L 539.208 1134 
L 539.208 1134 
L 510.192 1134 
L 510.192 1134 
L 481.176 1134 
L 481.176 1134 
L 452.16 1134 
L 452.16 1134 
L 423.144 1134 
L 423.144 1134 
L 394.128 1134 
L 394.128 1134 
L 365.112 1134 
L 365.112 1134 
L 336.096 1134 
L 336.096 1134 
L 307.08 1134 
L 307.08 1134 
L 278.064 1134 
L 278.064 1134 
L 249.048 1134 
L 249.048 1134 
L 220.032 1134 
L 220.032 1134 
L 191.016 1134 
L 191.016 1134 
z
" clip-path="url(#p47f022a8b3)" style="fill: #ff7f0e; opacity: 0.5"/>
   </g>
   <g id="patch_19">
    <path d="M 162 1134 
L 162 1123.728164 
L 178.74 1123.728164 
L 178.74 1134 
L 195.48 1134 
L 195.48 1123.728164 
L 212.22 1123.728164 
L 212.22 1134 
L 228.96 1134 
L 228.96 1134 
L 245.7 1134 
L 245.7 1123.728164 
L 262.44 1123.728164 
L 262.44 1134 
L 279.18 1134 
L 279.18 1123.728164 
L 295.92 1123.728164 
L 295.92 1134 
L 312.66 1134 
L 312.66 1134 
L 329.4 1134 
L 329.4 1134 
L 346.14 1134 
L 346.14 1134 
L 362.88 1134 
L 362.88 1134 
L 379.62 1134 
L 379.62 1123.728164 
L 396.36 1123.728164 
L 396.36 1134 
L 413.1 1134 
L 413.1 1134 
L 429.84 1134 
L 429.84 1123.728164 
L 446.58 1123.728164 
L 446.58 1134 
L 463.32 1134 
L 463.32 1134 
L 480.06 1134 
L 480.06 1134 
L 496.8 1134 
L 496.8 1134 
L 513.54 1134 
L 513.54 1123.728164 
L 530.28 1123.728164 
L 530.28 1134 
L 547.02 1134 
L 547.02 1134 
L 563.76 1134 
L 563.76 1134 
L 580.5 1134 
L 580.5 1134 
L 597.24 1134 
L 597.24 1134 
L 613.98 1134 
L 613.98 1103.184491 
L 630.72 1103.184491 
L 630.72 1123.728164 
L 647.46 1123.728164 
L 647.46 1113.456328 
L 664.2 1113.456328 
L 664.2 1103.184491 
L 680.94 1103.184491 
L 680.94 1103.184491 
L 697.68 1103.184491 
L 697.68 1123.728164 
L 714.42 1123.728164 
L 714.42 1113.456328 
L 731.16 1113.456328 
L 731.16 1103.184491 
L 747.9 1103.184491 
L 747.9 1072.368983 
L 764.64 1072.368983 
L 764.64 1092.912655 
L 781.38 1092.912655 
L 781.38 1082.640819 
L 798.12 1082.640819 
L 798.12 1051.82531 
L 814.86 1051.82531 
L 814.86 1072.368983 
L 831.6 1072.368983 
L 831.6 1062.097147 
L 848.34 1062.097147 
L 848.34 1062.097147 
L 865.08 1062.097147 
L 865.08 1041.553474 
L 881.82 1041.553474 
L 881.82 1031.281638 
L 898.56 1031.281638 
L 898.56 1010.737966 
L 915.3 1010.737966 
L 915.3 1051.82531 
L 932.04 1051.82531 
L 932.04 1113.456328 
L 948.78 1113.456328 
L 948.78 1113.456328 
L 965.52 1113.456328 
L 965.52 1113.456328 
L 982.26 1113.456328 
L 982.26 1082.640819 
L 999 1082.640819 
L 999 1113.456328 
L 1015.74 1113.456328 
L 1015.74 1113.456328 
L 1032.48 1113.456328 
L 1032.48 1123.728164 
L 1049.22 1123.728164 
L 1049.22 1123.728164 
L 1065.96 1123.728164 
L 1065.96 1092.912655 
L 1082.7 1092.912655 
L 1082.7 1113.456328 
L 1099.44 1113.456328 
L 1099.44 1113.456328 
L 1116.18 1113.456328 
L 1116.18 1123.728164 
L 1132.92 1123.728164 
L 1132.92 1113.456328 
L 1149.66 1113.456328 
L 1149.66 1113.456328 
L 1166.4 1113.456328 
L 1166.4 1134 
L 1149.66 1134 
L 1149.66 1134 
L 1132.92 1134 
L 1132.92 1134 
L 1116.18 1134 
L 1116.18 1134 
L 1099.44 1134 
L 1099.44 1134 
L 1082.7 1134 
L 1082.7 1134 
L 1065.96 1134 
L 1065.96 1134 
L 1049.22 1134 
L 1049.22 1134 
L 1032.48 1134 
L 1032.48 1134 
L 1015.74 1134 
L 1015.74 1134 
L 999 1134 
L 999 1134 
L 982.26 1134 
L 982.26 1134 
L 965.52 1134 
L 965.52 1134 
L 948.78 1134 
L 948.78 1134 
L 932.04 1134 
L 932.04 1134 
L 915.3 1134 
L 915.3 1134 
L 898.56 1134 
L 898.56 1134 
L 881.82 1134 
L 881.82 1134 
L 865.08 1134 
L 865.08 1134 
L 848.34 1134 
L 848.34 1134 
L 831.6 1134 
L 831.6 1134 
L 814.86 1134 
L 814.86 1134 
L 798.12 1134 
L 798.12 1134 
L 781.38 1134 
L 781.38 1134 
L 764.64 1134 
L 764.64 1134 
L 747.9 1134 
L 747.9 1134 
L 731.16 1134 
L 731.16 1134 
L 714.42 1134 
L 714.42 1134 
L 697.68 1134 
L 697.68 1134 
L 680.94 1134 
L 680.94 1134 
L 664.2 1134 
L 664.2 1134 
L 647.46 1134 
L 647.46 1134 
L 630.72 1134 
L 630.72 1134 
L 613.98 1134 
L 613.98 1134 
L 597.24 1134 
L 597.24 1134 
L 580.5 1134 
L 580.5 1134 
L 563.76 1134 
L 563.76 1134 
L 547.02 1134 
L 547.02 1134 
L 530.28 1134 
L 530.28 1134 
L 513.54 1134 
L 513.54 1134 
L 496.8 1134 
L 496.8 1134 
L 480.06 1134 
L 480.06 1134 
L 463.32 1134 
L 463.32 1134 
L 446.58 1134 
L 446.58 1134 
L 429.84 1134 
L 429.84 1134 
L 413.1 1134 
L 413.1 1134 
L 396.36 1134 
L 396.36 1134 
L 379.62 1134 
L 379.62 1134 
L 362.88 1134 
L 362.88 1134 
L 346.14 1134 
L 346.14 1134 
L 329.4 1134 
L 329.4 1134 
L 312.66 1134 
L 312.66 1134 
L 295.92 1134 
L 295.92 1134 
L 279.18 1134 
L 279.18 1134 
L 262.44 1134 
L 262.44 1134 
L 245.7 1134 
L 245.7 1134 
L 228.96 1134 
L 228.96 1134 
L 212.22 1134 
L 212.22 1134 
L 195.48 1134 
L 195.48 1134 
L 178.74 1134 
L 178.74 1134 
z
" clip-path="url(#p47f022a8b3)" style="fill: #2ca02c; opacity: 0.5"/>
   </g>
   <g id="matplotlib.axis_3">
    <g id="xtick_7">
     <g id="line2d_27">
      <path d="M 162 1134 
L 162 689.236364 
" clip-path="url(#p47f022a8b3)" style="fill: none; stroke: #b0b0b0; stroke-opacity: 0.5; stroke-width: 0.8; stroke-linecap: square"/>
     </g>
     <g id="line2d_28">
      <g>
       <use xlink:href="#m4b32591824" x="162" y="1134" style="stroke: #000000; stroke-width: 0.8"/>
      </g>
     </g>
     <g id="text_20">
      <!-- 3000 -->
      <g transform="translate(144.185 1151.637812)scale(0.14 -0.14)">
       <use xlink:href="#DejaVuSans-33"/>
       <use xlink:href="#DejaVuSans-30" x="63.623047"/>
       <use xlink:href="#DejaVuSans-30" x="127.246094"/>
       <use xlink:href="#DejaVuSans-30" x="190.869141"/>
      </g>
     </g>
    </g>
    <g id="xtick_8">
     <g id="line2d_29">
      <path d="M 329.4 1134 
L 329.4 689.236364 
" clip-path="url(#p47f022a8b3)" style="fill: none; stroke: #b0b0b0; stroke-opacity: 0.5; stroke-width: 0.8; stroke-linecap: square"/>
     </g>
     <g id="line2d_30">
      <g>
       <use xlink:href="#m4b32591824" x="329.4" y="1134" style="stroke: #000000; stroke-width: 0.8"/>
      </g>
     </g>
     <g id="text_21">
      <!-- 3500 -->
      <g transform="translate(311.585 1151.637812)scale(0.14 -0.14)">
       <use xlink:href="#DejaVuSans-33"/>
       <use xlink:href="#DejaVuSans-35" x="63.623047"/>
       <use xlink:href="#DejaVuSans-30" x="127.246094"/>
       <use xlink:href="#DejaVuSans-30" x="190.869141"/>
      </g>
     </g>
    </g>
    <g id="xtick_9">
     <g id="line2d_31">
      <path d="M 496.8 1134 
L 496.8 689.236364 
" clip-path="url(#p47f022a8b3)" style="fill: none; stroke: #b0b0b0; stroke-opacity: 0.5; stroke-width: 0.8; stroke-linecap: square"/>
     </g>
     <g id="line2d_32">
      <g>
       <use xlink:href="#m4b32591824" x="496.8" y="1134" style="stroke: #000000; stroke-width: 0.8"/>
      </g>
     </g>
     <g id="text_22">
      <!-- 4000 -->
      <g transform="translate(478.985 1151.637812)scale(0.14 -0.14)">
       <use xlink:href="#DejaVuSans-34"/>
       <use xlink:href="#DejaVuSans-30" x="63.623047"/>
       <use xlink:href="#DejaVuSans-30" x="127.246094"/>
       <use xlink:href="#DejaVuSans-30" x="190.869141"/>
      </g>
     </g>
    </g>
    <g id="xtick_10">
     <g id="line2d_33">
      <path d="M 664.2 1134 
L 664.2 689.236364 
" clip-path="url(#p47f022a8b3)" style="fill: none; stroke: #b0b0b0; stroke-opacity: 0.5; stroke-width: 0.8; stroke-linecap: square"/>
     </g>
     <g id="line2d_34">
      <g>
       <use xlink:href="#m4b32591824" x="664.2" y="1134" style="stroke: #000000; stroke-width: 0.8"/>
      </g>
     </g>
     <g id="text_23">
      <!-- 4500 -->
      <g transform="translate(646.385 1151.637812)scale(0.14 -0.14)">
       <use xlink:href="#DejaVuSans-34"/>
       <use xlink:href="#DejaVuSans-35" x="63.623047"/>
       <use xlink:href="#DejaVuSans-30" x="127.246094"/>
       <use xlink:href="#DejaVuSans-30" x="190.869141"/>
      </g>
     </g>
    </g>
    <g id="xtick_11">
     <g id="line2d_35">
      <path d="M 831.6 1134 
L 831.6 689.236364 
" clip-path="url(#p47f022a8b3)" style="fill: none; stroke: #b0b0b0; stroke-opacity: 0.5; stroke-width: 0.8; stroke-linecap: square"/>
     </g>
     <g id="line2d_36">
      <g>
       <use xlink:href="#m4b32591824" x="831.6" y="1134" style="stroke: #000000; stroke-width: 0.8"/>
      </g>
     </g>
     <g id="text_24">
      <!-- 5000 -->
      <g transform="translate(813.785 1151.637812)scale(0.14 -0.14)">
       <use xlink:href="#DejaVuSans-35"/>
       <use xlink:href="#DejaVuSans-30" x="63.623047"/>
       <use xlink:href="#DejaVuSans-30" x="127.246094"/>
       <use xlink:href="#DejaVuSans-30" x="190.869141"/>
      </g>
     </g>
    </g>
    <g id="xtick_12">
     <g id="line2d_37">
      <path d="M 999 1134 
L 999 689.236364 
" clip-path="url(#p47f022a8b3)" style="fill: none; stroke: #b0b0b0; stroke-opacity: 0.5; stroke-width: 0.8; stroke-linecap: square"/>
     </g>
     <g id="line2d_38">
      <g>
       <use xlink:href="#m4b32591824" x="999" y="1134" style="stroke: #000000; stroke-width: 0.8"/>
      </g>
     </g>
     <g id="text_25">
      <!-- 5500 -->
      <g transform="translate(981.185 1151.637812)scale(0.14 -0.14)">
       <use xlink:href="#DejaVuSans-35"/>
       <use xlink:href="#DejaVuSans-35" x="63.623047"/>
       <use xlink:href="#DejaVuSans-30" x="127.246094"/>
       <use xlink:href="#DejaVuSans-30" x="190.869141"/>
      </g>
     </g>
    </g>
    <g id="xtick_13">
     <g id="line2d_39">
      <path d="M 1166.4 1134 
L 1166.4 689.236364 
" clip-path="url(#p47f022a8b3)" style="fill: none; stroke: #b0b0b0; stroke-opacity: 0.5; stroke-width: 0.8; stroke-linecap: square"/>
     </g>
     <g id="line2d_40">
      <g>
       <use xlink:href="#m4b32591824" x="1166.4" y="1134" style="stroke: #000000; stroke-width: 0.8"/>
      </g>
     </g>
     <g id="text_26">
      <!-- 6000 -->
      <g transform="translate(1148.585 1151.637812)scale(0.14 -0.14)">
       <use xlink:href="#DejaVuSans-36"/>
       <use xlink:href="#DejaVuSans-30" x="63.623047"/>
       <use xlink:href="#DejaVuSans-30" x="127.246094"/>
       <use xlink:href="#DejaVuSans-30" x="190.869141"/>
      </g>
     </g>
    </g>
    <g id="text_27">
     <!-- $m_{B}$ [MeV] -->
     <g transform="translate(621.45 1172.226562)scale(0.18 -0.18)">
      <defs>
       <path id="DejaVuSans-Oblique-42" d="M 1081 4666 
L 2694 4666 
Q 3350 4666 3675 4422 
Q 4000 4178 4000 3688 
Q 4000 3238 3720 2911 
Q 3441 2584 2988 2516 
Q 3375 2428 3569 2181 
Q 3763 1934 3763 1522 
Q 3763 819 3242 409 
Q 2722 0 1819 0 
L 172 0 
L 1081 4666 
z
M 1234 2228 
L 903 519 
L 1919 519 
Q 2491 519 2800 781 
Q 3109 1044 3109 1522 
Q 3109 1891 2904 2059 
Q 2700 2228 2247 2228 
L 1234 2228 
z
M 1606 4147 
L 1331 2741 
L 2272 2741 
Q 2775 2741 3058 2959 
Q 3341 3178 3341 3566 
Q 3341 3869 3150 4008 
Q 2959 4147 2541 4147 
L 1606 4147 
z
" transform="scale(0.015625)"/>
      </defs>
      <use xlink:href="#DejaVuSans-Oblique-6d" transform="translate(0 0.015625)"/>
      <use xlink:href="#DejaVuSans-Oblique-42" transform="translate(97.412109 -16.390625)scale(0.7)"/>
      <use xlink:href="#DejaVuSans-20" transform="translate(148.168945 0.015625)"/>
      <use xlink:href="#DejaVuSans-5b" transform="translate(179.956055 0.015625)"/>
      <use xlink:href="#DejaVuSans-4d" transform="translate(218.969727 0.015625)"/>
      <use xlink:href="#DejaVuSans-65" transform="translate(305.249023 0.015625)"/>
      <use xlink:href="#DejaVuSans-56" transform="translate(366.772461 0.015625)"/>
      <use xlink:href="#DejaVuSans-5d" transform="translate(435.180664 0.015625)"/>
     </g>
    </g>
   </g>
   <g id="matplotlib.axis_4">
    <g id="ytick_8">
     <g id="line2d_41">
      <path d="M 162 1134 
L 1166.4 1134 
" clip-path="url(#p47f022a8b3)" style="fill: none; stroke: #b0b0b0; stroke-opacity: 0.5; stroke-width: 0.8; stroke-linecap: square"/>
     </g>
     <g id="line2d_42">
      <g>
       <use xlink:href="#mca8136f6ec" x="162" y="1134" style="stroke: #000000; stroke-width: 0.8"/>
      </g>
     </g>
     <g id="text_28">
      <!-- 0.000 -->
      <g transform="translate(114.920625 1139.318906)scale(0.14 -0.14)">
       <use xlink:href="#DejaVuSans-30"/>
       <use xlink:href="#DejaVuSans-2e" x="63.623047"/>
       <use xlink:href="#DejaVuSans-30" x="95.410156"/>
       <use xlink:href="#DejaVuSans-30" x="159.033203"/>
       <use xlink:href="#DejaVuSans-30" x="222.65625"/>
      </g>
     </g>
    </g>
    <g id="ytick_9">
     <g id="line2d_43">
      <path d="M 162 1063.637922 
L 1166.4 1063.637922 
" clip-path="url(#p47f022a8b3)" style="fill: none; stroke: #b0b0b0; stroke-opacity: 0.5; stroke-width: 0.8; stroke-linecap: square"/>
     </g>
     <g id="line2d_44">
      <g>
       <use xlink:href="#mca8136f6ec" x="162" y="1063.637922" style="stroke: #000000; stroke-width: 0.8"/>
      </g>
     </g>
     <g id="text_29">
      <!-- 0.001 -->
      <g transform="translate(114.920625 1068.956828)scale(0.14 -0.14)">
       <use xlink:href="#DejaVuSans-30"/>
       <use xlink:href="#DejaVuSans-2e" x="63.623047"/>
       <use xlink:href="#DejaVuSans-30" x="95.410156"/>
       <use xlink:href="#DejaVuSans-30" x="159.033203"/>
       <use xlink:href="#DejaVuSans-31" x="222.65625"/>
      </g>
     </g>
    </g>
    <g id="ytick_10">
     <g id="line2d_45">
      <path d="M 162 993.275844 
L 1166.4 993.275844 
" clip-path="url(#p47f022a8b3)" style="fill: none; stroke: #b0b0b0; stroke-opacity: 0.5; stroke-width: 0.8; stroke-linecap: square"/>
     </g>
     <g id="line2d_46">
      <g>
       <use xlink:href="#mca8136f6ec" x="162" y="993.275844" style="stroke: #000000; stroke-width: 0.8"/>
      </g>
     </g>
     <g id="text_30">
      <!-- 0.002 -->
      <g transform="translate(114.920625 998.59475)scale(0.14 -0.14)">
       <use xlink:href="#DejaVuSans-30"/>
       <use xlink:href="#DejaVuSans-2e" x="63.623047"/>
       <use xlink:href="#DejaVuSans-30" x="95.410156"/>
       <use xlink:href="#DejaVuSans-30" x="159.033203"/>
       <use xlink:href="#DejaVuSans-32" x="222.65625"/>
      </g>
     </g>
    </g>
    <g id="ytick_11">
     <g id="line2d_47">
      <path d="M 162 922.913766 
L 1166.4 922.913766 
" clip-path="url(#p47f022a8b3)" style="fill: none; stroke: #b0b0b0; stroke-opacity: 0.5; stroke-width: 0.8; stroke-linecap: square"/>
     </g>
     <g id="line2d_48">
      <g>
       <use xlink:href="#mca8136f6ec" x="162" y="922.913766" style="stroke: #000000; stroke-width: 0.8"/>
      </g>
     </g>
     <g id="text_31">
      <!-- 0.003 -->
      <g transform="translate(114.920625 928.232672)scale(0.14 -0.14)">
       <use xlink:href="#DejaVuSans-30"/>
       <use xlink:href="#DejaVuSans-2e" x="63.623047"/>
       <use xlink:href="#DejaVuSans-30" x="95.410156"/>
       <use xlink:href="#DejaVuSans-30" x="159.033203"/>
       <use xlink:href="#DejaVuSans-33" x="222.65625"/>
      </g>
     </g>
    </g>
    <g id="ytick_12">
     <g id="line2d_49">
      <path d="M 162 852.551688 
L 1166.4 852.551688 
" clip-path="url(#p47f022a8b3)" style="fill: none; stroke: #b0b0b0; stroke-opacity: 0.5; stroke-width: 0.8; stroke-linecap: square"/>
     </g>
     <g id="line2d_50">
      <g>
       <use xlink:href="#mca8136f6ec" x="162" y="852.551688" style="stroke: #000000; stroke-width: 0.8"/>
      </g>
     </g>
     <g id="text_32">
      <!-- 0.004 -->
      <g transform="translate(114.920625 857.870595)scale(0.14 -0.14)">
       <use xlink:href="#DejaVuSans-30"/>
       <use xlink:href="#DejaVuSans-2e" x="63.623047"/>
       <use xlink:href="#DejaVuSans-30" x="95.410156"/>
       <use xlink:href="#DejaVuSans-30" x="159.033203"/>
       <use xlink:href="#DejaVuSans-34" x="222.65625"/>
      </g>
     </g>
    </g>
    <g id="ytick_13">
     <g id="line2d_51">
      <path d="M 162 782.18961 
L 1166.4 782.18961 
" clip-path="url(#p47f022a8b3)" style="fill: none; stroke: #b0b0b0; stroke-opacity: 0.5; stroke-width: 0.8; stroke-linecap: square"/>
     </g>
     <g id="line2d_52">
      <g>
       <use xlink:href="#mca8136f6ec" x="162" y="782.18961" style="stroke: #000000; stroke-width: 0.8"/>
      </g>
     </g>
     <g id="text_33">
      <!-- 0.005 -->
      <g transform="translate(114.920625 787.508517)scale(0.14 -0.14)">
       <use xlink:href="#DejaVuSans-30"/>
       <use xlink:href="#DejaVuSans-2e" x="63.623047"/>
       <use xlink:href="#DejaVuSans-30" x="95.410156"/>
       <use xlink:href="#DejaVuSans-30" x="159.033203"/>
       <use xlink:href="#DejaVuSans-35" x="222.65625"/>
      </g>
     </g>
    </g>
    <g id="ytick_14">
     <g id="line2d_53">
      <path d="M 162 711.827532 
L 1166.4 711.827532 
" clip-path="url(#p47f022a8b3)" style="fill: none; stroke: #b0b0b0; stroke-opacity: 0.5; stroke-width: 0.8; stroke-linecap: square"/>
     </g>
     <g id="line2d_54">
      <g>
       <use xlink:href="#mca8136f6ec" x="162" y="711.827532" style="stroke: #000000; stroke-width: 0.8"/>
      </g>
     </g>
     <g id="text_34">
      <!-- 0.006 -->
      <g transform="translate(114.920625 717.146439)scale(0.14 -0.14)">
       <use xlink:href="#DejaVuSans-30"/>
       <use xlink:href="#DejaVuSans-2e" x="63.623047"/>
       <use xlink:href="#DejaVuSans-30" x="95.410156"/>
       <use xlink:href="#DejaVuSans-30" x="159.033203"/>
       <use xlink:href="#DejaVuSans-36" x="222.65625"/>
      </g>
     </g>
    </g>
    <g id="text_35">
     <!-- Counts/Bin -->
     <g transform="translate(107.177188 960.444588)rotate(-90)scale(0.18 -0.18)">
      <use xlink:href="#DejaVuSans-43"/>
      <use xlink:href="#DejaVuSans-6f" x="69.824219"/>
      <use xlink:href="#DejaVuSans-75" x="131.005859"/>
      <use xlink:href="#DejaVuSans-6e" x="194.384766"/>
      <use xlink:href="#DejaVuSans-74" x="257.763672"/>
      <use xlink:href="#DejaVuSans-73" x="296.972656"/>
      <use xlink:href="#DejaVuSans-2f" x="349.072266"/>
      <use xlink:href="#DejaVuSans-42" x="382.763672"/>
      <use xlink:href="#DejaVuSans-69" x="451.367188"/>
      <use xlink:href="#DejaVuSans-6e" x="479.150391"/>
     </g>
    </g>
   </g>
   <g id="patch_20">
    <path d="M 162 1134 
L 162 1134 
L 191.016 1134 
L 191.016 1134 
L 220.032 1134 
L 220.032 1134 
L 249.048 1134 
L 249.048 1130.077922 
L 278.064 1130.077922 
L 278.064 1130.077922 
L 307.08 1130.077922 
L 307.08 1134 
L 336.096 1134 
L 336.096 1134 
L 365.112 1134 
L 365.112 1134 
L 394.128 1134 
L 394.128 1130.077922 
L 423.144 1130.077922 
L 423.144 1134 
L 452.16 1134 
L 452.16 1134 
L 481.176 1134 
L 481.176 1130.077922 
L 510.192 1130.077922 
L 510.192 1134 
L 539.208 1134 
L 539.208 1134 
L 568.224 1134 
L 568.224 1130.077922 
L 597.24 1130.077922 
L 597.24 1126.155844 
L 626.256 1126.155844 
L 626.256 1134 
L 655.272 1134 
L 655.272 1130.077922 
L 684.288 1130.077922 
L 684.288 1130.077922 
L 713.304 1130.077922 
L 713.304 1130.077922 
L 742.32 1130.077922 
L 742.32 1126.155844 
L 771.336 1126.155844 
L 771.336 1114.38961 
L 800.352 1114.38961 
L 800.352 1122.233766 
L 829.368 1122.233766 
L 829.368 1110.467532 
L 858.384 1110.467532 
L 858.384 1071.246753 
L 887.4 1071.246753 
L 887.4 937.896104 
L 916.416 937.896104 
L 916.416 710.415584 
L 945.432 710.415584 
L 945.432 1110.467532 
L 974.448 1110.467532 
L 974.448 1134 
L 1003.464 1134 
L 1003.464 1130.077922 
L 1032.48 1130.077922 
L 1032.48 1134 
" clip-path="url(#p47f022a8b3)" style="fill: none; stroke: #000000; stroke-linejoin: miter"/>
   </g>
   <g id="patch_21">
    <path d="M 162 1134 
L 162 689.236364 
" style="fill: none; stroke: #000000; stroke-width: 0.8; stroke-linejoin: miter; stroke-linecap: square"/>
   </g>
   <g id="patch_22">
    <path d="M 1166.4 1134 
L 1166.4 689.236364 
" style="fill: none; stroke: #000000; stroke-width: 0.8; stroke-linejoin: miter; stroke-linecap: square"/>
   </g>
   <g id="patch_23">
    <path d="M 162 1134 
L 1166.4 1134 
" style="fill: none; stroke: #000000; stroke-width: 0.8; stroke-linejoin: miter; stroke-linecap: square"/>
   </g>
   <g id="patch_24">
    <path d="M 162 689.236364 
L 1166.4 689.236364 
" style="fill: none; stroke: #000000; stroke-width: 0.8; stroke-linejoin: miter; stroke-linecap: square"/>
   </g>
   <g id="legend_2">
    <g id="patch_25">
     <path d="M 1014.55875 809.318864 
L 1153.8 809.318864 
Q 1157.4 809.318864 1157.4 805.718864 
L 1157.4 701.836364 
Q 1157.4 698.236364 1153.8 698.236364 
L 1014.55875 698.236364 
Q 1010.95875 698.236364 1010.95875 701.836364 
L 1010.95875 805.718864 
Q 1010.95875 809.318864 1014.55875 809.318864 
z
" style="fill: #ffffff; opacity: 0.8; stroke: #cccccc; stroke-linejoin: miter"/>
    </g>
    <g id="patch_26">
     <path d="M 1018.15875 719.113551 
L 1054.15875 719.113551 
L 1054.15875 706.513551 
L 1018.15875 706.513551 
z
" style="fill: #1f77b4; opacity: 0.5"/>
    </g>
    <g id="text_36">
     <!-- no reco -->
     <g transform="translate(1068.55875 719.113551)scale(0.18 -0.18)">
      <use xlink:href="#DejaVuSans-6e"/>
      <use xlink:href="#DejaVuSans-6f" x="63.378906"/>
      <use xlink:href="#DejaVuSans-20" x="124.560547"/>
      <use xlink:href="#DejaVuSans-72" x="156.347656"/>
      <use xlink:href="#DejaVuSans-65" x="195.210938"/>
      <use xlink:href="#DejaVuSans-63" x="256.734375"/>
      <use xlink:href="#DejaVuSans-6f" x="311.714844"/>
     </g>
    </g>
    <g id="patch_27">
     <path d="M 1018.15875 745.534176 
L 1054.15875 745.534176 
L 1054.15875 732.934176 
L 1018.15875 732.934176 
L 1018.15875 745.534176 
z
" style="fill: none; stroke: #000000; stroke-linejoin: miter"/>
    </g>
    <g id="text_37">
     <!-- true reco -->
     <g transform="translate(1068.55875 745.534176)scale(0.18 -0.18)">
      <use xlink:href="#DejaVuSans-74"/>
      <use xlink:href="#DejaVuSans-72" x="39.208984"/>
      <use xlink:href="#DejaVuSans-75" x="80.322266"/>
      <use xlink:href="#DejaVuSans-65" x="143.701172"/>
      <use xlink:href="#DejaVuSans-20" x="205.224609"/>
      <use xlink:href="#DejaVuSans-72" x="237.011719"/>
      <use xlink:href="#DejaVuSans-65" x="275.875"/>
      <use xlink:href="#DejaVuSans-63" x="337.398438"/>
      <use xlink:href="#DejaVuSans-6f" x="392.378906"/>
     </g>
    </g>
    <g id="patch_28">
     <path d="M 1018.15875 771.954801 
L 1054.15875 771.954801 
L 1054.15875 759.354801 
L 1018.15875 759.354801 
z
" style="fill: #ff7f0e; opacity: 0.5"/>
    </g>
    <g id="text_38">
     <!-- std reco -->
     <g transform="translate(1068.55875 771.954801)scale(0.18 -0.18)">
      <use xlink:href="#DejaVuSans-73"/>
      <use xlink:href="#DejaVuSans-74" x="52.099609"/>
      <use xlink:href="#DejaVuSans-64" x="91.308594"/>
      <use xlink:href="#DejaVuSans-20" x="154.785156"/>
      <use xlink:href="#DejaVuSans-72" x="186.572266"/>
      <use xlink:href="#DejaVuSans-65" x="225.435547"/>
      <use xlink:href="#DejaVuSans-63" x="286.958984"/>
      <use xlink:href="#DejaVuSans-6f" x="341.939453"/>
     </g>
    </g>
    <g id="patch_29">
     <path d="M 1018.15875 798.375426 
L 1054.15875 798.375426 
L 1054.15875 785.775426 
L 1018.15875 785.775426 
z
" style="fill: #2ca02c; opacity: 0.5"/>
    </g>
    <g id="text_39">
     <!-- our reco -->
     <g transform="translate(1068.55875 798.375426)scale(0.18 -0.18)">
      <use xlink:href="#DejaVuSans-6f"/>
      <use xlink:href="#DejaVuSans-75" x="61.181641"/>
      <use xlink:href="#DejaVuSans-72" x="124.560547"/>
      <use xlink:href="#DejaVuSans-20" x="165.673828"/>
      <use xlink:href="#DejaVuSans-72" x="197.460938"/>
      <use xlink:href="#DejaVuSans-65" x="236.324219"/>
      <use xlink:href="#DejaVuSans-63" x="297.847656"/>
      <use xlink:href="#DejaVuSans-6f" x="352.828125"/>
     </g>
    </g>
   </g>
  </g>
 </g>
 <defs>
  <clipPath id="pcfee1cd4e2">
   <rect x="162" y="155.52" width="1004.4" height="444.763636"/>
  </clipPath>
  <clipPath id="p47f022a8b3">
   <rect x="162" y="689.236364" width="1004.4" height="444.763636"/>
  </clipPath>
 </defs>
</svg>
