<svg class="main-svg" xmlns="http://www.w3.org/2000/svg" xmlns:xlink="http://www.w3.org/1999/xlink" width="800" height="800" style="" viewBox="0 0 800 800"><rect x="0" y="0" width="800" height="800" style="fill: rgb(255, 255, 255); fill-opacity: 1;"/><defs id="defs-42feb3"><g class="clips"><clipPath id="clip42feb3xyplot" class="plotclip"><rect width="698.0000000000001" height="698"/></clipPath><clipPath class="axesclip" id="clip42feb3x"><rect x="60" y="0" width="698.0000000000001" height="800"/></clipPath><clipPath class="axesclip" id="clip42feb3y"><rect x="0" y="50" width="800" height="698"/></clipPath><clipPath class="axesclip" id="clip42feb3xy"><rect x="60" y="50" width="698.0000000000001" height="698"/></clipPath></g><g class="gradients"/><g class="patterns"/></defs><g class="bglayer"/><g class="layer-below"><g class="imagelayer"/><g class="shapelayer"/></g><g class="cartesianlayer"><g class="subplot xy"><g class="layer-subplot"><g class="shapelayer"/><g class="imagelayer"/></g><g class="gridlayer"><g class="x"><path class="xgrid crisp" transform="translate(199.6,0)" d="M0,50v698" style="stroke: rgb(189, 195, 199); stroke-opacity: 0.5; stroke-width: 1px;"/><path class="xgrid crisp" transform="translate(339.2,0)" d="M0,50v698" style="stroke: rgb(189, 195, 199); stroke-opacity: 0.5; stroke-width: 1px;"/><path class="xgrid crisp" transform="translate(478.8,0)" d="M0,50v698" style="stroke: rgb(189, 195, 199); stroke-opacity: 0.5; stroke-width: 1px;"/><path class="xgrid crisp" transform="translate(618.4,0)" d="M0,50v698" style="stroke: rgb(189, 195, 199); stroke-opacity: 0.5; stroke-width: 1px;"/></g><g class="y"><path class="ygrid crisp" transform="translate(0,608.4)" d="M60,0h698.0000000000001" style="stroke: rgb(189, 195, 199); stroke-opacity: 0.5; stroke-width: 1px;"/><path class="ygrid crisp" transform="translate(0,468.8)" d="M60,0h698.0000000000001" style="stroke: rgb(189, 195, 199); stroke-opacity: 0.5; stroke-width: 1px;"/><path class="ygrid crisp" transform="translate(0,329.2)" d="M60,0h698.0000000000001" style="stroke: rgb(189, 195, 199); stroke-opacity: 0.5; stroke-width: 1px;"/><path class="ygrid crisp" transform="translate(0,189.6)" d="M60,0h698.0000000000001" style="stroke: rgb(189, 195, 199); stroke-opacity: 0.5; stroke-width: 1px;"/></g></g><g class="zerolinelayer"><path class="yzl zl crisp" transform="translate(0,748)" d="M60,0h698.0000000000001" style="stroke: rgb(235, 240, 248); stroke-opacity: 1; stroke-width: 2px;"/></g><path class="xlines-below"/><path class="ylines-below"/><g class="overlines-below"/><g class="xaxislayer-below"/><g class="yaxislayer-below"/><g class="overaxes-below"/><g class="plot" transform="translate(60,50)" clip-path="url(#clip42feb3xyplot)"><g class="scatterlayer mlayer"><g class="trace scatter trace32a37d" style="stroke-miterlimit: 2;"><g class="fills"><g><path class="js-fill" d="M0,698L14.1,698.15L21.15,695.94L35.25,690.97L42.3,686.58L49.35,681.04L56.4,671.09L63.45,657.13L70.51,645.26L77.56,625.61L84.61,631.45L91.66,674.41L98.71,518.9L105.76,220.44L112.81,132.58L119.86,76.96L126.91,61.34L133.96,47.11L141.01,42.92L148.06,42.74L155.11,41.1L162.16,37.53L169.21,30.7L176.26,27.01L183.31,26.08L190.36,22.44L197.41,22.04L204.46,21.38L211.52,19.05L218.57,16.05L225.62,15.66L232.67,14.86L239.72,15.02L253.82,13.48L260.87,13.23L274.97,11.99L282.02,11.28L324.32,7.48L331.37,7.11L387.78,4.96L394.83,4.96L415.98,4.43L423.03,4.43L472.38,3.83L479.43,3.78L507.64,2.45L514.69,2.33L542.89,1.76L549.94,1.64L613.39,1.05L620.44,0.78L641.6,0L648.65,0L698,0L698,0L669.8,0L662.75,0L542.89,0.22L535.84,0.23L437.13,2.48L430.08,2.7L352.53,3.39L345.47,4.9L296.12,6.97L289.07,7.4L267.92,8.64L260.87,8.96L204.46,13.5L197.41,16.01L183.31,16.63L176.26,19.76L169.21,20.73L162.16,23.31L148.06,34.65L141.01,36.35L133.96,37.02L126.91,38.64L119.86,48.09L112.81,47.07L105.76,84.17L98.71,81.3L91.66,266.36L84.61,522.96L77.56,586.67L70.51,605.47L63.45,633.05L56.4,651.38L49.35,667.4L42.3,676.72L35.25,682.43L28.2,689.04L14.1,696.76L7.05,698L0,698Z" style="fill: rgb(128, 252, 128); fill-opacity: 0.2; stroke-width: 0;"/></g></g><g class="errorbars"/><g class="lines"><path class="js-line" d="M0,698L7.05,698L14.1,696.76L28.2,689.04L35.25,682.43L42.3,676.72L49.35,667.4L56.4,651.38L63.45,633.05L70.51,605.47L77.56,586.67L84.61,522.96L91.66,266.36L98.71,81.3L105.76,84.17L112.81,47.07L119.86,48.09L126.91,38.64L133.96,37.02L141.01,36.35L148.06,34.65L162.16,23.31L169.21,20.73L176.26,19.76L183.31,16.63L197.41,16.01L204.46,13.5L260.87,8.96L267.92,8.64L289.07,7.4L296.12,6.97L345.47,4.9L352.53,3.39L430.08,2.7L437.13,2.48L535.84,0.23L542.89,0.22L662.75,0L669.8,0L698,0" style="vector-effect: non-scaling-stroke; fill: none; stroke: rgb(128, 152, 128); stroke-opacity: 0.5; stroke-width: 1px; opacity: 1;"/></g><g class="points"/><g class="text"/></g><g class="trace scatter tracefa7354" style="stroke-miterlimit: 2;"><g class="fills"/><g class="errorbars"/><g class="lines"><path class="js-line" d="M0,698L14.1,698.15L21.15,695.94L35.25,690.97L42.3,686.58L49.35,681.04L56.4,671.09L63.45,657.13L70.51,645.26L77.56,625.61L84.61,631.45L91.66,674.41L98.71,518.9L105.76,220.44L112.81,132.58L119.86,76.96L126.91,61.34L133.96,47.11L141.01,42.92L148.06,42.74L155.11,41.1L162.16,37.53L169.21,30.7L176.26,27.01L183.31,26.08L190.36,22.44L197.41,22.04L204.46,21.38L211.52,19.05L218.57,16.05L225.62,15.66L232.67,14.86L239.72,15.02L253.82,13.48L260.87,13.23L274.97,11.99L282.02,11.28L324.32,7.48L331.37,7.11L387.78,4.96L394.83,4.96L415.98,4.43L423.03,4.43L472.38,3.83L479.43,3.78L507.64,2.45L514.69,2.33L542.89,1.76L549.94,1.64L613.39,1.05L620.44,0.78L641.6,0L648.65,0L698,0" style="vector-effect: non-scaling-stroke; fill: none; stroke: rgb(128, 152, 128); stroke-opacity: 0.5; stroke-width: 1px; opacity: 1;"/></g><g class="points"/><g class="text"/></g><g class="trace scatter traceaff716" style="stroke-miterlimit: 2; opacity: 1;"><g class="fills"/><g class="errorbars"/><g class="lines"><path class="js-line" d="M0,698L14.1,697.45L21.15,694.58L28.2,691.21L35.25,686.7L42.3,681.65L49.35,674.22L56.4,661.24L63.45,645.09L77.56,606.14L84.61,577.2L91.66,470.39L98.71,300.1L105.76,152.3L112.81,89.83L119.86,62.53L126.91,49.99L133.96,42.06L141.01,39.64L148.06,38.7L155.11,34.98L169.21,25.71L176.26,23.39L190.36,19.54L197.41,19.03L218.57,14.42L225.62,13.58L324.32,6.59L331.37,6.19L345.47,5.7L352.53,4.66L380.73,3.96L387.78,3.96L451.23,3.27L458.28,3.02L493.54,2.08L500.59,1.59L549.94,0.94L556.99,0.94L613.39,0.25L620.44,0.15L676.85,0L683.9,0L698,0" style="vector-effect: non-scaling-stroke; fill: none; stroke: rgb(128, 0, 128); stroke-opacity: 1; stroke-width: 2px; opacity: 1;"/></g><g class="points"/><g class="text"/></g><g class="trace scatter trace1b7502" style="stroke-miterlimit: 2;"><g class="fills"><g><path class="js-fill" d="M0,698L14.1,699.98L21.15,699.07L28.2,701.06L35.25,700.44L42.3,705.75L49.35,702.02L56.4,700.91L63.45,682.19L70.51,672.23L77.56,783.81L84.61,833.23L91.66,810.15L98.71,732.08L105.76,567.56L112.81,441.48L119.86,175.59L126.91,97.91L133.96,68.91L141.01,58.03L148.06,53.4L155.11,53.99L162.16,51.02L169.21,48.21L176.26,41.94L183.31,36.35L190.36,33.22L197.41,31.42L204.46,26.72L211.52,25.9L218.57,24.15L232.67,22.93L239.72,22.51L246.77,20.86L253.82,20.94L267.92,20.35L274.97,17.01L282.02,15.13L289.07,14.16L310.22,11L317.27,11L338.42,10.59L345.47,9.57L359.58,8.92L366.63,8.25L387.78,7.93L394.83,7.06L465.33,6.63L472.38,6.41L486.48,6.41L493.54,5.35L528.79,3.93L535.84,3.93L549.94,2.97L556.99,2.97L585.19,2.41L592.24,1.98L613.39,1.39L620.44,0L698,0L698,0L394.83,0.47L387.78,0L345.47,0.74L338.42,0.91L317.27,2.87L310.22,2.87L274.97,2.81L267.92,1.85L239.72,3.66L232.67,4.82L225.62,5.07L218.57,5.98L183.31,6.47L176.26,6.81L169.21,9.66L162.16,13.98L155.11,15.77L148.06,20.71L141.01,23.23L133.96,23.45L126.91,20.61L119.86,0L105.76,0L98.71,0L91.66,141.44L84.61,243.64L77.56,388.21L70.51,574.75L63.45,607.19L56.4,622.16L49.35,650.39L42.3,656.56L35.25,672.57L28.2,679.88L21.15,689.4L14.1,693.64L0,698Z" style="fill: rgb(52, 152, 0); fill-opacity: 0.2; stroke-width: 0;"/></g></g><g class="errorbars"/><g class="lines"><path class="js-line" d="M0,698L14.1,693.64L21.15,689.4L28.2,679.88L35.25,672.57L42.3,656.56L49.35,650.39L56.4,622.16L63.45,607.19L70.51,574.75L77.56,388.21L84.61,243.64L91.66,141.44L98.71,0L105.76,0L119.86,0L126.91,20.61L133.96,23.45L141.01,23.23L148.06,20.71L155.11,15.77L162.16,13.98L169.21,9.66L176.26,6.81L183.31,6.47L218.57,5.98L225.62,5.07L232.67,4.82L239.72,3.66L267.92,1.85L274.97,2.81L310.22,2.87L317.27,2.87L338.42,0.91L345.47,0.74L387.78,0L394.83,0.47L698,0" style="vector-effect: non-scaling-stroke; fill: none; stroke: rgb(52, 152, 0); stroke-opacity: 0.5; stroke-width: 1px; opacity: 1;"/></g><g class="points"/><g class="text"/></g><g class="trace scatter trace239dbc" style="stroke-miterlimit: 2;"><g class="fills"/><g class="errorbars"/><g class="lines"><path class="js-line" d="M0,698L14.1,699.98L21.15,699.07L28.2,701.06L35.25,700.44L42.3,705.75L49.35,702.02L56.4,700.91L63.45,682.19L70.51,672.23L77.56,783.81L84.61,833.23L91.66,810.15L98.71,732.08L105.76,567.56L112.81,441.48L119.86,175.59L126.91,97.91L133.96,68.91L141.01,58.03L148.06,53.4L155.11,53.99L162.16,51.02L169.21,48.21L176.26,41.94L183.31,36.35L190.36,33.22L197.41,31.42L204.46,26.72L211.52,25.9L218.57,24.15L232.67,22.93L239.72,22.51L246.77,20.86L253.82,20.94L267.92,20.35L274.97,17.01L282.02,15.13L289.07,14.16L310.22,11L317.27,11L338.42,10.59L345.47,9.57L359.58,8.92L366.63,8.25L387.78,7.93L394.83,7.06L465.33,6.63L472.38,6.41L486.48,6.41L493.54,5.35L528.79,3.93L535.84,3.93L549.94,2.97L556.99,2.97L585.19,2.41L592.24,1.98L613.39,1.39L620.44,0L698,0" style="vector-effect: non-scaling-stroke; fill: none; stroke: rgb(52, 152, 0); stroke-opacity: 0.5; stroke-width: 1px; opacity: 1;"/></g><g class="points"/><g class="text"/></g><g class="trace scatter tracea51495" style="stroke-miterlimit: 2; opacity: 1;"><g class="fills"/><g class="errorbars"/><g class="lines"><path class="js-line" d="M0,698L14.1,696.81L21.15,694.23L35.25,686.51L42.3,681.15L49.35,676.2L56.4,661.53L63.45,644.69L70.51,623.49L77.56,586.01L84.61,538.43L91.66,475.79L98.71,355.35L105.76,238.42L112.81,159.56L119.86,84.82L126.91,59.26L133.96,46.18L141.01,40.63L148.06,37.06L155.11,34.88L162.16,32.5L169.21,28.94L176.26,24.38L183.31,21.41L204.46,16.65L211.52,15.86L246.77,12.09L253.82,11.89L267.92,11.1L274.97,9.91L289.07,8.33L296.12,7.73L331.37,6.14L338.42,5.75L359.58,4.56L366.63,4.36L401.88,3.77L408.93,3.57L465.33,2.97L472.38,2.78L493.54,2.38L500.59,1.98L521.74,1.39L528.79,1.39L578.14,0.79L585.19,0.59L634.55,0L641.6,0L698,0" style="vector-effect: non-scaling-stroke; fill: none; stroke: rgb(41, 128, 0); stroke-opacity: 1; stroke-width: 2px; opacity: 1;"/></g><g class="points"/><g class="text"/></g><g class="trace scatter trace9dcf93" style="stroke-miterlimit: 2;"><g class="fills"><g><path class="js-fill" d="M0,698L14.1,692.47L21.15,686.16L28.2,677.4L35.25,670.63L49.35,648.95L56.4,636.29L63.45,621.06L70.51,600.24L77.56,584.47L84.61,597.12L91.66,588.57L98.71,303.18L105.76,232.11L112.81,193.95L119.86,164.69L126.91,140.98L133.96,129.13L141.01,120.24L148.06,110.2L155.11,97.32L162.16,87.45L169.21,75.84L176.26,69.3L183.31,64.7L190.36,57.52L197.41,54.52L211.52,50.44L218.57,48.42L225.62,47.23L232.67,43.86L253.82,38.65L260.87,37.49L282.02,35L289.07,33.84L303.17,31.07L310.22,30.06L317.27,28.62L324.32,28.1L345.47,24.2L352.53,22.53L387.78,17.16L394.83,16.26L401.88,15.64L408.93,14.02L444.18,10.01L451.23,10.13L458.28,10.23L465.33,9.49L479.43,8.42L486.48,8.29L549.94,6.81L556.99,6.63L606.34,5.19L613.39,5.3L634.55,4.37L641.6,4.25L669.8,3.25L676.85,2.46L690.95,1.64L698,0L698,0L690.95,0.07L676.85,0.94L669.8,1.14L655.7,1.88L648.65,2.25L613.39,3.86L606.34,4.17L571.09,4.43L564.04,4.74L521.74,4.91L514.69,5.18L479.43,6.5L472.38,6.78L451.23,8.98L444.18,9.49L430.08,9.5L423.03,10.11L401.88,12.96L394.83,14.63L380.73,16.69L373.68,16.69L352.53,19.23L345.47,19.78L338.42,21.14L331.37,23.22L317.27,25.83L310.22,26.49L303.17,28.95L296.12,30.65L289.07,31.54L282.02,32.48L267.92,33.93L260.87,34.5L253.82,35.96L246.77,38.07L239.72,39.19L232.67,40.24L225.62,42.5L218.57,47.01L211.52,48.52L204.46,50.32L190.36,55.31L183.31,58.67L169.21,69.32L162.16,76.82L155.11,85.54L148.06,95.04L141.01,106.53L133.96,117.48L126.91,127.03L119.86,140.63L112.81,159.79L105.76,186.89L98.71,204.62L91.66,224.62L84.61,420.72L77.56,529.25L70.51,561.07L63.45,587.24L56.4,603.82L49.35,628.85L42.3,645.41L35.25,652L28.2,664.09L21.15,678.1L14.1,686.84L7.05,693.44L0,698Z" style="fill: rgb(0, 152, 219); fill-opacity: 0.2; stroke-width: 0;"/></g></g><g class="errorbars"/><g class="lines"><path class="js-line" d="M0,698L7.05,693.44L14.1,686.84L21.15,678.1L28.2,664.09L35.25,652L42.3,645.41L49.35,628.85L56.4,603.82L63.45,587.24L70.51,561.07L77.56,529.25L84.61,420.72L91.66,224.62L98.71,204.62L105.76,186.89L112.81,159.79L119.86,140.63L126.91,127.03L133.96,117.48L141.01,106.53L148.06,95.04L155.11,85.54L162.16,76.82L169.21,69.32L183.31,58.67L190.36,55.31L204.46,50.32L211.52,48.52L218.57,47.01L225.62,42.5L232.67,40.24L239.72,39.19L246.77,38.07L253.82,35.96L260.87,34.5L267.92,33.93L282.02,32.48L289.07,31.54L296.12,30.65L303.17,28.95L310.22,26.49L317.27,25.83L331.37,23.22L338.42,21.14L345.47,19.78L352.53,19.23L373.68,16.69L380.73,16.69L394.83,14.63L401.88,12.96L423.03,10.11L430.08,9.5L444.18,9.49L451.23,8.98L472.38,6.78L479.43,6.5L514.69,5.18L521.74,4.91L564.04,4.74L571.09,4.43L606.34,4.17L613.39,3.86L648.65,2.25L655.7,1.88L669.8,1.14L676.85,0.94L690.95,0.07L698,0" style="vector-effect: non-scaling-stroke; fill: none; stroke: rgb(0, 152, 219); stroke-opacity: 0.5; stroke-width: 1px; opacity: 1;"/></g><g class="points"/><g class="text"/></g><g class="trace scatter trace521b02" style="stroke-miterlimit: 2;"><g class="fills"/><g class="errorbars"/><g class="lines"><path class="js-line" d="M0,698L14.1,692.47L21.15,686.16L28.2,677.4L35.25,670.63L49.35,648.95L56.4,636.29L63.45,621.06L70.51,600.24L77.56,584.47L84.61,597.12L91.66,588.57L98.71,303.18L105.76,232.11L112.81,193.95L119.86,164.69L126.91,140.98L133.96,129.13L141.01,120.24L148.06,110.2L155.11,97.32L162.16,87.45L169.21,75.84L176.26,69.3L183.31,64.7L190.36,57.52L197.41,54.52L211.52,50.44L218.57,48.42L225.62,47.23L232.67,43.86L253.82,38.65L260.87,37.49L282.02,35L289.07,33.84L303.17,31.07L310.22,30.06L317.27,28.62L324.32,28.1L345.47,24.2L352.53,22.53L387.78,17.16L394.83,16.26L401.88,15.64L408.93,14.02L444.18,10.01L451.23,10.13L458.28,10.23L465.33,9.49L479.43,8.42L486.48,8.29L549.94,6.81L556.99,6.63L606.34,5.19L613.39,5.3L634.55,4.37L641.6,4.25L669.8,3.25L676.85,2.46L690.95,1.64L698,0" style="vector-effect: non-scaling-stroke; fill: none; stroke: rgb(0, 152, 219); stroke-opacity: 0.5; stroke-width: 1px; opacity: 1;"/></g><g class="points"/><g class="text"/></g><g class="trace scatter trace2f0430" style="stroke-miterlimit: 2; opacity: 1;"><g class="fills"/><g class="errorbars"/><g class="lines"><path class="js-line" d="M0,698L7.05,694.43L14.1,689.66L21.15,682.13L28.2,670.74L42.3,652.68L49.35,638.9L56.4,620.05L63.45,604.15L77.56,556.86L84.61,508.92L91.66,406.59L98.71,253.9L105.76,209.5L112.81,176.87L119.86,152.66L126.91,134L155.11,91.43L162.16,82.14L169.21,72.58L176.26,66.47L190.36,56.42L197.41,53.6L211.52,49.48L218.57,47.71L232.67,42.05L239.72,40.61L260.87,36L267.92,35.37L296.12,31.45L303.17,30.01L317.27,27.23L324.32,26.31L359.58,19.86L366.63,19.08L380.73,17.31L387.78,16.56L423.03,11.32L430.08,10.47L486.48,7.2L493.54,7.1L542.89,5.92L549.94,5.79L620.44,4.12L627.49,3.83L669.8,2.19L676.85,1.7L698,0" style="vector-effect: non-scaling-stroke; fill: none; stroke: rgb(0, 128, 185); stroke-opacity: 1; stroke-width: 2px; opacity: 1;"/></g><g class="points"/><g class="text"/></g></g></g><g class="overplot"/><path class="xlines-above crisp" d="M59,748.5H758.0000000000001" style="fill: none; stroke-width: 1px; stroke: rgb(0, 0, 0); stroke-opacity: 1;"/><path class="ylines-above crisp" d="M59.5,50V748" style="fill: none; stroke-width: 1px; stroke: rgb(0, 0, 0); stroke-opacity: 1;"/><g class="overlines-above"/><g class="xaxislayer-above"><g class="xtick"><text text-anchor="middle" x="0" y="768.2" transform="translate(60,0)" style="font-family: 'Open Sans', verdana, arial, sans-serif; font-size: 16px; fill: rgb(42, 63, 95); fill-opacity: 1; white-space: pre; opacity: 1;">0</text></g><g class="xtick"><text text-anchor="middle" x="0" y="768.2" style="font-family: 'Open Sans', verdana, arial, sans-serif; font-size: 16px; fill: rgb(42, 63, 95); fill-opacity: 1; white-space: pre; opacity: 1;" transform="translate(199.6,0)">0.2</text></g><g class="xtick"><text text-anchor="middle" x="0" y="768.2" style="font-family: 'Open Sans', verdana, arial, sans-serif; font-size: 16px; fill: rgb(42, 63, 95); fill-opacity: 1; white-space: pre; opacity: 1;" transform="translate(339.2,0)">0.4</text></g><g class="xtick"><text text-anchor="middle" x="0" y="768.2" style="font-family: 'Open Sans', verdana, arial, sans-serif; font-size: 16px; fill: rgb(42, 63, 95); fill-opacity: 1; white-space: pre; opacity: 1;" transform="translate(478.8,0)">0.6</text></g><g class="xtick"><text text-anchor="middle" x="0" y="768.2" style="font-family: 'Open Sans', verdana, arial, sans-serif; font-size: 16px; fill: rgb(42, 63, 95); fill-opacity: 1; white-space: pre; opacity: 1;" transform="translate(618.4,0)">0.8</text></g><g class="xtick"><text text-anchor="middle" x="0" y="768.2" style="font-family: 'Open Sans', verdana, arial, sans-serif; font-size: 16px; fill: rgb(42, 63, 95); fill-opacity: 1; white-space: pre; opacity: 1;" transform="translate(758,0)">1</text></g></g><g class="yaxislayer-above"><g class="ytick"><text text-anchor="end" x="55.8" y="5.6" transform="translate(0,748)" style="font-family: 'Open Sans', verdana, arial, sans-serif; font-size: 16px; fill: rgb(42, 63, 95); fill-opacity: 1; white-space: pre; opacity: 1;">0</text></g><g class="ytick"><text text-anchor="end" x="55.8" y="5.6" style="font-family: 'Open Sans', verdana, arial, sans-serif; font-size: 16px; fill: rgb(42, 63, 95); fill-opacity: 1; white-space: pre; opacity: 1;" transform="translate(0,608.4)">0.2</text></g><g class="ytick"><text text-anchor="end" x="55.8" y="5.6" style="font-family: 'Open Sans', verdana, arial, sans-serif; font-size: 16px; fill: rgb(42, 63, 95); fill-opacity: 1; white-space: pre; opacity: 1;" transform="translate(0,468.8)">0.4</text></g><g class="ytick"><text text-anchor="end" x="55.8" y="5.6" style="font-family: 'Open Sans', verdana, arial, sans-serif; font-size: 16px; fill: rgb(42, 63, 95); fill-opacity: 1; white-space: pre; opacity: 1;" transform="translate(0,329.2)">0.6</text></g><g class="ytick"><text text-anchor="end" x="55.8" y="5.6" style="font-family: 'Open Sans', verdana, arial, sans-serif; font-size: 16px; fill: rgb(42, 63, 95); fill-opacity: 1; white-space: pre; opacity: 1;" transform="translate(0,189.6)">0.8</text></g><g class="ytick"><text text-anchor="end" x="55.8" y="5.6" style="font-family: 'Open Sans', verdana, arial, sans-serif; font-size: 16px; fill: rgb(42, 63, 95); fill-opacity: 1; white-space: pre; opacity: 1;" transform="translate(0,50)">1</text></g></g><g class="overaxes-above"/></g></g><g class="polarlayer"/><g class="ternarylayer"/><g class="geolayer"/><g class="funnelarealayer"/><g class="pielayer"/><g class="iciclelayer"/><g class="treemaplayer"/><g class="sunburstlayer"/><g class="glimages"/><defs id="topdefs-42feb3"><g class="clips"/><clipPath id="legend42feb3"><rect width="260" height="113" x="0" y="0"/></clipPath></defs><g class="layer-above"><g class="imagelayer"/><g class="shapelayer"><path data-index="0" fill-rule="evenodd" d="M60,748L758,50" clip-path="url(#clip42feb3xy)" style="opacity: 1; stroke: rgb(42, 63, 95); stroke-opacity: 1; fill: rgb(0, 0, 0); fill-opacity: 0; stroke-dasharray: 9px, 9px; stroke-width: 2px;"/></g></g><g class="infolayer"><g class="legend" pointer-events="all" transform="translate(496.4,628.02)"><rect class="bg" shape-rendering="crispEdges" width="260" height="113" x="0" y="0" style="stroke: rgb(68, 68, 68); stroke-opacity: 1; fill: rgb(255, 255, 255); fill-opacity: 1; stroke-width: 0px;"/><g class="scrollbox" transform="" clip-path="url(#legend42feb3)"><g class="groups"><g class="traces" transform="translate(0,22.1)" style="opacity: 1;"><text class="legendtext" text-anchor="start" x="40" y="9.360000000000001" style="font-family: 'Open Sans', verdana, arial, sans-serif; font-size: 24px; fill: rgb(42, 63, 95); fill-opacity: 1; white-space: pre;">Test_AUC: 0.838</text><g class="layers" style="opacity: 1;"><g class="legendfill"/><g class="legendlines"><path class="js-line" d="M5,0h30" style="fill: none; stroke: rgb(0, 128, 185); stroke-opacity: 1; stroke-width: 2px;"/></g><g class="legendsymbols"><g class="legendpoints"/></g></g><rect class="legendtoggle" x="0" y="-17.1" width="254.421875" height="34.2" style="fill: rgb(0, 0, 0); fill-opacity: 0;"/></g><g class="traces" transform="translate(0,56.300000000000004)" style="opacity: 1;"><text class="legendtext" text-anchor="start" x="40" y="9.360000000000001" style="font-family: 'Open Sans', verdana, arial, sans-serif; font-size: 24px; fill: rgb(42, 63, 95); fill-opacity: 1; white-space: pre;">Val_AUC: 0.853</text><g class="layers" style="opacity: 1;"><g class="legendfill"/><g class="legendlines"><path class="js-line" d="M5,0h30" style="fill: none; stroke: rgb(41, 128, 0); stroke-opacity: 1; stroke-width: 2px;"/></g><g class="legendsymbols"><g class="legendpoints"/></g></g><rect class="legendtoggle" x="0" y="-17.1" width="254.421875" height="34.2" style="fill: rgb(0, 0, 0); fill-opacity: 0;"/></g><g class="traces" transform="translate(0,90.5)" style="opacity: 1;"><text class="legendtext" text-anchor="start" x="40" y="9.360000000000001" style="font-family: 'Open Sans', verdana, arial, sans-serif; font-size: 24px; fill: rgb(42, 63, 95); fill-opacity: 1; white-space: pre;">Train_AUC: 0.855</text><g class="layers" style="opacity: 1;"><g class="legendfill"/><g class="legendlines"><path class="js-line" d="M5,0h30" style="fill: none; stroke: rgb(128, 0, 128); stroke-opacity: 1; stroke-width: 2px;"/></g><g class="legendsymbols"><g class="legendpoints"/></g></g><rect class="legendtoggle" x="0" y="-17.1" width="254.421875" height="34.2" style="fill: rgb(0, 0, 0); fill-opacity: 0;"/></g></g></g><rect class="scrollbar" rx="20" ry="3" width="0" height="0" x="0" y="0" style="fill: rgb(128, 139, 164); fill-opacity: 1;"/></g><g class="g-gtitle"><text class="gtitle" x="400" y="25" text-anchor="middle" dy="0em" style="font-family: 'Open Sans', verdana, arial, sans-serif; font-size: 17px; fill: rgb(42, 63, 95); opacity: 1; font-weight: normal; white-space: pre;">ROC Curve for SVM model</text></g><g class="g-xtitle" transform="translate(0,-4.203125)"><text class="xtitle" x="409.00000000000006" y="800.203125" text-anchor="middle" style="font-family: 'Open Sans', verdana, arial, sans-serif; font-size: 20px; fill: rgb(42, 63, 95); opacity: 1; font-weight: normal; white-space: pre;">1 - Specificity</text></g><g class="g-ytitle" transform="translate(19.375,0)"><text class="ytitle" transform="rotate(-90,0.625,399)" x="0.625" y="399" text-anchor="middle" style="font-family: 'Open Sans', verdana, arial, sans-serif; font-size: 20px; fill: rgb(42, 63, 95); opacity: 1; font-weight: normal; white-space: pre;">Sensitivity</text></g></g></svg>