<svg class="main-svg" xmlns="http://www.w3.org/2000/svg" xmlns:xlink="http://www.w3.org/1999/xlink" width="800" height="800" style="" viewBox="0 0 800 800"><rect x="0" y="0" width="800" height="800" style="fill: rgb(255, 255, 255); fill-opacity: 1;"/><defs id="defs-fdd38c"><g class="clips"><clipPath id="clipfdd38cxyplot" class="plotclip"><rect width="698.0000000000001" height="698"/></clipPath><clipPath class="axesclip" id="clipfdd38cx"><rect x="60" y="0" width="698.0000000000001" height="800"/></clipPath><clipPath class="axesclip" id="clipfdd38cy"><rect x="0" y="50" width="800" height="698"/></clipPath><clipPath class="axesclip" id="clipfdd38cxy"><rect x="60" y="50" width="698.0000000000001" height="698"/></clipPath></g><g class="gradients"/><g class="patterns"/></defs><g class="bglayer"/><g class="layer-below"><g class="imagelayer"/><g class="shapelayer"/></g><g class="cartesianlayer"><g class="subplot xy"><g class="layer-subplot"><g class="shapelayer"/><g class="imagelayer"/></g><g class="gridlayer"><g class="x"><path class="xgrid crisp" transform="translate(199.6,0)" d="M0,50v698" style="stroke: rgb(189, 195, 199); stroke-opacity: 0.5; stroke-width: 1px;"/><path class="xgrid crisp" transform="translate(339.2,0)" d="M0,50v698" style="stroke: rgb(189, 195, 199); stroke-opacity: 0.5; stroke-width: 1px;"/><path class="xgrid crisp" transform="translate(478.8,0)" d="M0,50v698" style="stroke: rgb(189, 195, 199); stroke-opacity: 0.5; stroke-width: 1px;"/><path class="xgrid crisp" transform="translate(618.4,0)" d="M0,50v698" style="stroke: rgb(189, 195, 199); stroke-opacity: 0.5; stroke-width: 1px;"/></g><g class="y"><path class="ygrid crisp" transform="translate(0,608.4)" d="M60,0h698.0000000000001" style="stroke: rgb(189, 195, 199); stroke-opacity: 0.5; stroke-width: 1px;"/><path class="ygrid crisp" transform="translate(0,468.8)" d="M60,0h698.0000000000001" style="stroke: rgb(189, 195, 199); stroke-opacity: 0.5; stroke-width: 1px;"/><path class="ygrid crisp" transform="translate(0,329.2)" d="M60,0h698.0000000000001" style="stroke: rgb(189, 195, 199); stroke-opacity: 0.5; stroke-width: 1px;"/><path class="ygrid crisp" transform="translate(0,189.6)" d="M60,0h698.0000000000001" style="stroke: rgb(189, 195, 199); stroke-opacity: 0.5; stroke-width: 1px;"/></g></g><g class="zerolinelayer"><path class="yzl zl crisp" transform="translate(0,748)" d="M60,0h698.0000000000001" style="stroke: rgb(235, 240, 248); stroke-opacity: 1; stroke-width: 2px;"/></g><path class="xlines-below"/><path class="ylines-below"/><g class="overlines-below"/><g class="xaxislayer-below"/><g class="yaxislayer-below"/><g class="overaxes-below"/><g class="plot" transform="translate(60,50)" clip-path="url(#clipfdd38cxyplot)"><g class="scatterlayer mlayer"><g class="trace scatter trace09119d" style="stroke-miterlimit: 2;"><g class="fills"><g><path class="js-fill" d="M0,698L7.05,408.76L14.1,276.8L21.15,155.25L28.2,100.88L35.25,77.32L42.3,67.78L49.35,56.93L56.4,52.32L63.45,42.99L70.51,39.72L77.56,34.8L84.61,31.99L105.76,21.18L112.81,18.94L119.86,17.63L126.91,14.94L148.06,11.07L155.11,10.65L176.26,8.18L183.31,7.43L218.57,5.58L225.62,5.65L274.97,3.69L282.02,3.55L324.32,3.47L331.37,3.23L359.58,2.51L366.63,2.29L408.93,1.76L415.98,1.45L592.24,0.74L599.29,0.68L648.65,0L655.7,0L698,0L698,0L338.42,0.08L331.37,0L310.22,0.36L303.17,0.62L232.67,1.91L225.62,1.98L204.46,3.57L197.41,3.42L176.26,4.1L169.21,4.35L162.16,5.42L155.11,5.3L112.81,8.11L105.76,8.45L98.71,9.57L91.66,10.27L70.51,13.88L63.45,16.86L56.4,16.36L49.35,21.13L42.3,23.48L35.25,26.88L28.2,31.58L21.15,29.89L14.1,24.46L7.05,138.33L0,698Z" style="fill: rgb(128, 252, 128); fill-opacity: 0.2; stroke-width: 0;"/></g></g><g class="errorbars"/><g class="lines"><path class="js-line" d="M0,698L7.05,138.33L14.1,24.46L21.15,29.89L28.2,31.58L35.25,26.88L42.3,23.48L49.35,21.13L56.4,16.36L63.45,16.86L70.51,13.88L91.66,10.27L98.71,9.57L105.76,8.45L112.81,8.11L155.11,5.3L162.16,5.42L169.21,4.35L176.26,4.1L197.41,3.42L204.46,3.57L225.62,1.98L232.67,1.91L303.17,0.62L310.22,0.36L331.37,0L338.42,0.08L698,0" style="vector-effect: non-scaling-stroke; fill: none; stroke: rgb(128, 152, 128); stroke-opacity: 0.5; stroke-width: 1px; opacity: 1;"/></g><g class="points"/><g class="text"/></g><g class="trace scatter trace1ab42e" style="stroke-miterlimit: 2;"><g class="fills"/><g class="errorbars"/><g class="lines"><path class="js-line" d="M0,698L7.05,408.76L14.1,276.8L21.15,155.25L28.2,100.88L35.25,77.32L42.3,67.78L49.35,56.93L56.4,52.32L63.45,42.99L70.51,39.72L77.56,34.8L84.61,31.99L105.76,21.18L112.81,18.94L119.86,17.63L126.91,14.94L148.06,11.07L155.11,10.65L176.26,8.18L183.31,7.43L218.57,5.58L225.62,5.65L274.97,3.69L282.02,3.55L324.32,3.47L331.37,3.23L359.58,2.51L366.63,2.29L408.93,1.76L415.98,1.45L592.24,0.74L599.29,0.68L648.65,0L655.7,0L698,0" style="vector-effect: non-scaling-stroke; fill: none; stroke: rgb(128, 152, 128); stroke-opacity: 0.5; stroke-width: 1px; opacity: 1;"/></g><g class="points"/><g class="text"/></g><g class="trace scatter tracec34a70" style="stroke-miterlimit: 2; opacity: 1;"><g class="fills"/><g class="errorbars"/><g class="lines"><path class="js-line" d="M0,698L7.05,273.54L14.1,150.63L21.15,92.57L28.2,66.23L35.25,52.1L42.3,45.63L49.35,39.03L56.4,34.34L63.45,29.93L70.51,26.8L77.56,23.73L84.61,21.5L105.76,14.81L112.81,13.53L126.91,11.15L133.96,9.86L197.41,4.95L204.46,4.76L289.07,2.23L296.12,2.18L444.18,0.64L451.23,0.64L698,0" style="vector-effect: non-scaling-stroke; fill: none; stroke: rgb(128, 0, 128); stroke-opacity: 1; stroke-width: 2px; opacity: 1;"/></g><g class="points"/><g class="text"/></g><g class="trace scatter trace53c6ff" style="stroke-miterlimit: 2;"><g class="fills"><g><path class="js-fill" d="M0,698L7.05,633.62L14.1,478.89L35.25,241.01L42.3,203.18L56.4,103.02L63.45,92.5L70.51,75.74L77.56,68.21L84.61,60.25L91.66,57.07L98.71,52.1L105.76,50.41L119.86,38.95L126.91,35.85L133.96,32L141.01,29.85L148.06,26.7L155.11,25.68L169.21,24.21L176.26,23.35L183.31,23.7L190.36,20.49L197.41,17.32L204.46,17.2L225.62,17.07L232.67,15.81L239.72,15.81L246.77,14.26L260.87,13.62L267.92,13.64L289.07,13.15L296.12,11.75L303.17,10.96L310.22,11.18L338.42,9.5L345.47,9.5L359.58,8.82L366.63,8.82L387.78,8.07L394.83,7.03L408.93,6.41L415.98,6.41L444.18,5.04L451.23,5.04L493.54,4.96L500.59,3.82L585.19,3.42L592.24,2.41L606.34,1.98L613.39,1.98L627.49,1.38L634.55,1.38L641.6,0L648.65,0L698,0L698,0L218.57,0L211.52,0L204.46,1.83L197.41,2.1L190.36,1.31L183.31,1.27L176.26,2.02L169.21,2.34L155.11,4.05L148.06,5.8L141.01,5.82L133.96,6.44L126.91,6.17L119.86,6.63L112.81,6.11L105.76,5.87L98.71,7.75L91.66,12.07L84.61,17.83L77.56,17.8L70.51,27.7L63.45,25.21L56.4,25.78L49.35,9.18L42.3,0L35.25,0L28.2,9.08L21.15,57.75L14.1,132.2L7.05,243.26L0,698Z" style="fill: rgb(52, 152, 0); fill-opacity: 0.2; stroke-width: 0;"/></g></g><g class="errorbars"/><g class="lines"><path class="js-line" d="M0,698L7.05,243.26L14.1,132.2L21.15,57.75L28.2,9.08L35.25,0L42.3,0L49.35,9.18L56.4,25.78L63.45,25.21L70.51,27.7L77.56,17.8L84.61,17.83L91.66,12.07L98.71,7.75L105.76,5.87L112.81,6.11L119.86,6.63L126.91,6.17L133.96,6.44L141.01,5.82L148.06,5.8L155.11,4.05L169.21,2.34L176.26,2.02L183.31,1.27L190.36,1.31L197.41,2.1L204.46,1.83L211.52,0L218.57,0L698,0" style="vector-effect: non-scaling-stroke; fill: none; stroke: rgb(52, 152, 0); stroke-opacity: 0.5; stroke-width: 1px; opacity: 1;"/></g><g class="points"/><g class="text"/></g><g class="trace scatter trace6ae474" style="stroke-miterlimit: 2;"><g class="fills"/><g class="errorbars"/><g class="lines"><path class="js-line" d="M0,698L7.05,633.62L14.1,478.89L35.25,241.01L42.3,203.18L56.4,103.02L63.45,92.5L70.51,75.74L77.56,68.21L84.61,60.25L91.66,57.07L98.71,52.1L105.76,50.41L119.86,38.95L126.91,35.85L133.96,32L141.01,29.85L148.06,26.7L155.11,25.68L169.21,24.21L176.26,23.35L183.31,23.7L190.36,20.49L197.41,17.32L204.46,17.2L225.62,17.07L232.67,15.81L239.72,15.81L246.77,14.26L260.87,13.62L267.92,13.64L289.07,13.15L296.12,11.75L303.17,10.96L310.22,11.18L338.42,9.5L345.47,9.5L359.58,8.82L366.63,8.82L387.78,8.07L394.83,7.03L408.93,6.41L415.98,6.41L444.18,5.04L451.23,5.04L493.54,4.96L500.59,3.82L585.19,3.42L592.24,2.41L606.34,1.98L613.39,1.98L627.49,1.38L634.55,1.38L641.6,0L648.65,0L698,0" style="vector-effect: non-scaling-stroke; fill: none; stroke: rgb(52, 152, 0); stroke-opacity: 0.5; stroke-width: 1px; opacity: 1;"/></g><g class="points"/><g class="text"/></g><g class="trace scatter trace837462" style="stroke-miterlimit: 2; opacity: 1;"><g class="fills"/><g class="errorbars"/><g class="lines"><path class="js-line" d="M0,698L7.05,438.44L14.1,305.55L21.15,229.36L28.2,167.45L35.25,120.34L42.3,98.91L56.4,64.4L63.45,58.85L70.51,51.72L77.56,43.01L91.66,34.57L98.71,29.93L105.76,28.14L112.81,25.56L119.86,22.79L126.91,21.01L148.06,16.25L155.11,14.86L176.26,12.68L183.31,12.48L197.41,9.71L204.46,9.51L218.57,8.13L225.62,8.13L239.72,7.53L246.77,7.13L289.07,6.34L296.12,5.35L310.22,4.36L317.27,4.16L359.58,3.57L366.63,3.57L394.83,2.97L401.88,2.77L415.98,2.77L423.03,1.98L458.28,1.59L465.33,1.59L549.94,0.99L556.99,0.79L634.55,0.2L641.6,0L698,0" style="vector-effect: non-scaling-stroke; fill: none; stroke: rgb(41, 128, 0); stroke-opacity: 1; stroke-width: 2px; opacity: 1;"/></g><g class="points"/><g class="text"/></g><g class="trace scatter trace5a485c" style="stroke-miterlimit: 2;"><g class="fills"><g><path class="js-fill" d="M0,698L14.1,575.2L21.15,517.12L28.2,475.17L35.25,408.96L42.3,344.21L49.35,271.48L56.4,220.13L63.45,190.62L70.51,165.86L77.56,145.91L84.61,135.03L91.66,125.79L105.76,111.83L112.81,105.55L119.86,98.99L126.91,93.52L148.06,77.2L155.11,75L162.16,73.95L169.21,70.64L190.36,63.87L197.41,61.4L204.46,60.1L211.52,57.78L218.57,54.81L225.62,53.39L253.82,45.92L260.87,45.3L289.07,40.31L296.12,38.54L324.32,34.41L331.37,34.11L394.83,28.64L401.88,28.42L408.93,27.2L415.98,26.94L437.13,25.73L444.18,25.16L451.23,24.95L458.28,23.68L479.43,21.83L486.48,21.39L493.54,21.21L500.59,19.97L514.69,18.52L521.74,18.2L528.79,17.8L535.84,16.49L549.94,14.9L556.99,14.08L571.09,12.23L578.14,11.32L599.29,10.6L606.34,9.71L613.39,9.4L620.44,8.14L648.65,7.16L655.7,6.2L669.8,4.46L676.85,3.81L683.9,3.4L690.95,1.7L698,0L698,0L669.8,0L662.75,0L606.34,2.2L599.29,2.03L585.19,3.95L578.14,4.91L571.09,5.05L564.04,4.88L542.89,5.71L535.84,5.69L521.74,6.8L514.69,7.66L486.48,10.22L479.43,11.29L458.28,12.44L451.23,12.15L437.13,12.95L430.08,13.41L394.83,16.33L387.78,16.75L359.58,20.09L352.53,21.03L317.27,26.24L310.22,26.77L289.07,29.92L282.02,30.6L267.92,32.77L260.87,35.2L253.82,36.61L246.77,37.6L239.72,39.58L232.67,41.29L218.57,45.84L211.52,46.8L183.31,53.54L176.26,56.63L169.21,57.83L162.16,60.1L148.06,65.78L141.01,68.07L133.96,72.54L126.91,75.23L119.86,80.21L112.81,82.02L105.76,87.53L98.71,92.92L77.56,116.78L70.51,120.91L56.4,130.24L49.35,145.69L42.3,189.59L35.25,227.25L28.2,300.21L21.15,406.02L14.1,465.28L7.05,522.92L0,698Z" style="fill: rgb(0, 152, 219); fill-opacity: 0.2; stroke-width: 0;"/></g></g><g class="errorbars"/><g class="lines"><path class="js-line" d="M0,698L7.05,522.92L14.1,465.28L21.15,406.02L28.2,300.21L35.25,227.25L42.3,189.59L49.35,145.69L56.4,130.24L70.51,120.91L77.56,116.78L98.71,92.92L105.76,87.53L112.81,82.02L119.86,80.21L126.91,75.23L133.96,72.54L141.01,68.07L148.06,65.78L162.16,60.1L169.21,57.83L176.26,56.63L183.31,53.54L211.52,46.8L218.57,45.84L232.67,41.29L239.72,39.58L246.77,37.6L253.82,36.61L260.87,35.2L267.92,32.77L282.02,30.6L289.07,29.92L310.22,26.77L317.27,26.24L352.53,21.03L359.58,20.09L387.78,16.75L394.83,16.33L430.08,13.41L437.13,12.95L451.23,12.15L458.28,12.44L479.43,11.29L486.48,10.22L514.69,7.66L521.74,6.8L535.84,5.69L542.89,5.71L564.04,4.88L571.09,5.05L578.14,4.91L585.19,3.95L599.29,2.03L606.34,2.2L662.75,0L669.8,0L698,0" style="vector-effect: non-scaling-stroke; fill: none; stroke: rgb(0, 152, 219); stroke-opacity: 0.5; stroke-width: 1px; opacity: 1;"/></g><g class="points"/><g class="text"/></g><g class="trace scatter tracebcc114" style="stroke-miterlimit: 2;"><g class="fills"/><g class="errorbars"/><g class="lines"><path class="js-line" d="M0,698L14.1,575.2L21.15,517.12L28.2,475.17L35.25,408.96L42.3,344.21L49.35,271.48L56.4,220.13L63.45,190.62L70.51,165.86L77.56,145.91L84.61,135.03L91.66,125.79L105.76,111.83L112.81,105.55L119.86,98.99L126.91,93.52L148.06,77.2L155.11,75L162.16,73.95L169.21,70.64L190.36,63.87L197.41,61.4L204.46,60.1L211.52,57.78L218.57,54.81L225.62,53.39L253.82,45.92L260.87,45.3L289.07,40.31L296.12,38.54L324.32,34.41L331.37,34.11L394.83,28.64L401.88,28.42L408.93,27.2L415.98,26.94L437.13,25.73L444.18,25.16L451.23,24.95L458.28,23.68L479.43,21.83L486.48,21.39L493.54,21.21L500.59,19.97L514.69,18.52L521.74,18.2L528.79,17.8L535.84,16.49L549.94,14.9L556.99,14.08L571.09,12.23L578.14,11.32L599.29,10.6L606.34,9.71L613.39,9.4L620.44,8.14L648.65,7.16L655.7,6.2L669.8,4.46L676.85,3.81L683.9,3.4L690.95,1.7L698,0" style="vector-effect: non-scaling-stroke; fill: none; stroke: rgb(0, 152, 219); stroke-opacity: 0.5; stroke-width: 1px; opacity: 1;"/></g><g class="points"/><g class="text"/></g><g class="trace scatter tracefc4034" style="stroke-miterlimit: 2; opacity: 1;"><g class="fills"/><g class="errorbars"/><g class="lines"><path class="js-line" d="M0,698L7.05,578.08L14.1,520.24L21.15,461.57L28.2,387.69L35.25,318.11L42.3,266.9L49.35,208.59L56.4,175.19L63.45,157.96L70.51,143.39L77.56,131.34L84.61,121.97L91.66,113.2L98.71,105.77L112.81,93.79L119.86,89.6L126.91,84.37L133.96,80.38L141.01,75.43L148.06,71.49L155.11,68.82L162.16,67.02L169.21,64.23L176.26,62.37L197.41,55.66L204.46,54.09L253.82,41.26L260.87,40.25L274.97,37.14L282.02,36.03L303.17,32.76L310.22,31.51L359.58,25.92L366.63,25.3L394.83,22.48L401.88,22.01L423.03,20.29L430.08,19.9L528.79,11.94L535.84,11.09L627.49,4.52L634.55,4.42L655.7,2.91L662.75,2.36L698,0" style="vector-effect: non-scaling-stroke; fill: none; stroke: rgb(0, 128, 185); stroke-opacity: 1; stroke-width: 2px; opacity: 1;"/></g><g class="points"/><g class="text"/></g></g></g><g class="overplot"/><path class="xlines-above crisp" d="M59,748.5H758.0000000000001" style="fill: none; stroke-width: 1px; stroke: rgb(0, 0, 0); stroke-opacity: 1;"/><path class="ylines-above crisp" d="M59.5,50V748" style="fill: none; stroke-width: 1px; stroke: rgb(0, 0, 0); stroke-opacity: 1;"/><g class="overlines-above"/><g class="xaxislayer-above"><g class="xtick"><text text-anchor="middle" x="0" y="768.2" transform="translate(60,0)" style="font-family: 'Open Sans', verdana, arial, sans-serif; font-size: 16px; fill: rgb(42, 63, 95); fill-opacity: 1; white-space: pre; opacity: 1;">0</text></g><g class="xtick"><text text-anchor="middle" x="0" y="768.2" style="font-family: 'Open Sans', verdana, arial, sans-serif; font-size: 16px; fill: rgb(42, 63, 95); fill-opacity: 1; white-space: pre; opacity: 1;" transform="translate(199.6,0)">0.2</text></g><g class="xtick"><text text-anchor="middle" x="0" y="768.2" style="font-family: 'Open Sans', verdana, arial, sans-serif; font-size: 16px; fill: rgb(42, 63, 95); fill-opacity: 1; white-space: pre; opacity: 1;" transform="translate(339.2,0)">0.4</text></g><g class="xtick"><text text-anchor="middle" x="0" y="768.2" style="font-family: 'Open Sans', verdana, arial, sans-serif; font-size: 16px; fill: rgb(42, 63, 95); fill-opacity: 1; white-space: pre; opacity: 1;" transform="translate(478.8,0)">0.6</text></g><g class="xtick"><text text-anchor="middle" x="0" y="768.2" style="font-family: 'Open Sans', verdana, arial, sans-serif; font-size: 16px; fill: rgb(42, 63, 95); fill-opacity: 1; white-space: pre; opacity: 1;" transform="translate(618.4,0)">0.8</text></g><g class="xtick"><text text-anchor="middle" x="0" y="768.2" style="font-family: 'Open Sans', verdana, arial, sans-serif; font-size: 16px; fill: rgb(42, 63, 95); fill-opacity: 1; white-space: pre; opacity: 1;" transform="translate(758,0)">1</text></g></g><g class="yaxislayer-above"><g class="ytick"><text text-anchor="end" x="55.8" y="5.6" transform="translate(0,748)" style="font-family: 'Open Sans', verdana, arial, sans-serif; font-size: 16px; fill: rgb(42, 63, 95); fill-opacity: 1; white-space: pre; opacity: 1;">0</text></g><g class="ytick"><text text-anchor="end" x="55.8" y="5.6" style="font-family: 'Open Sans', verdana, arial, sans-serif; font-size: 16px; fill: rgb(42, 63, 95); fill-opacity: 1; white-space: pre; opacity: 1;" transform="translate(0,608.4)">0.2</text></g><g class="ytick"><text text-anchor="end" x="55.8" y="5.6" style="font-family: 'Open Sans', verdana, arial, sans-serif; font-size: 16px; fill: rgb(42, 63, 95); fill-opacity: 1; white-space: pre; opacity: 1;" transform="translate(0,468.8)">0.4</text></g><g class="ytick"><text text-anchor="end" x="55.8" y="5.6" style="font-family: 'Open Sans', verdana, arial, sans-serif; font-size: 16px; fill: rgb(42, 63, 95); fill-opacity: 1; white-space: pre; opacity: 1;" transform="translate(0,329.2)">0.6</text></g><g class="ytick"><text text-anchor="end" x="55.8" y="5.6" style="font-family: 'Open Sans', verdana, arial, sans-serif; font-size: 16px; fill: rgb(42, 63, 95); fill-opacity: 1; white-space: pre; opacity: 1;" transform="translate(0,189.6)">0.8</text></g><g class="ytick"><text text-anchor="end" x="55.8" y="5.6" style="font-family: 'Open Sans', verdana, arial, sans-serif; font-size: 16px; fill: rgb(42, 63, 95); fill-opacity: 1; white-space: pre; opacity: 1;" transform="translate(0,50)">1</text></g></g><g class="overaxes-above"/></g></g><g class="polarlayer"/><g class="ternarylayer"/><g class="geolayer"/><g class="funnelarealayer"/><g class="pielayer"/><g class="iciclelayer"/><g class="treemaplayer"/><g class="sunburstlayer"/><g class="glimages"/><defs id="topdefs-fdd38c"><g class="clips"/><clipPath id="legendfdd38c"><rect width="260" height="113" x="0" y="0"/></clipPath></defs><g class="layer-above"><g class="imagelayer"/><g class="shapelayer"><path data-index="0" fill-rule="evenodd" d="M60,748L758,50" clip-path="url(#clipfdd38cxy)" style="opacity: 1; stroke: rgb(42, 63, 95); stroke-opacity: 1; fill: rgb(0, 0, 0); fill-opacity: 0; stroke-dasharray: 9px, 9px; stroke-width: 2px;"/></g></g><g class="infolayer"><g class="legend" pointer-events="all" transform="translate(496.4,628.02)"><rect class="bg" shape-rendering="crispEdges" width="260" height="113" x="0" y="0" style="stroke: rgb(68, 68, 68); stroke-opacity: 1; fill: rgb(255, 255, 255); fill-opacity: 1; stroke-width: 0px;"/><g class="scrollbox" transform="" clip-path="url(#legendfdd38c)"><g class="groups"><g class="traces" transform="translate(0,22.1)" style="opacity: 1;"><text class="legendtext" text-anchor="start" x="40" y="9.360000000000001" style="font-family: 'Open Sans', verdana, arial, sans-serif; font-size: 24px; fill: rgb(42, 63, 95); fill-opacity: 1; white-space: pre;">Test_AUC: 0.907</text><g class="layers" style="opacity: 1;"><g class="legendfill"/><g class="legendlines"><path class="js-line" d="M5,0h30" style="fill: none; stroke: rgb(0, 128, 185); stroke-opacity: 1; stroke-width: 2px;"/></g><g class="legendsymbols"><g class="legendpoints"/></g></g><rect class="legendtoggle" x="0" y="-17.1" width="254.421875" height="34.2" style="fill: rgb(0, 0, 0); fill-opacity: 0;"/></g><g class="traces" transform="translate(0,56.300000000000004)" style="opacity: 1;"><text class="legendtext" text-anchor="start" x="40" y="9.360000000000001" style="font-family: 'Open Sans', verdana, arial, sans-serif; font-size: 24px; fill: rgb(42, 63, 95); fill-opacity: 1; white-space: pre;">Val_AUC: 0.963</text><g class="layers" style="opacity: 1;"><g class="legendfill"/><g class="legendlines"><path class="js-line" d="M5,0h30" style="fill: none; stroke: rgb(41, 128, 0); stroke-opacity: 1; stroke-width: 2px;"/></g><g class="legendsymbols"><g class="legendpoints"/></g></g><rect class="legendtoggle" x="0" y="-17.1" width="254.421875" height="34.2" style="fill: rgb(0, 0, 0); fill-opacity: 0;"/></g><g class="traces" transform="translate(0,90.5)" style="opacity: 1;"><text class="legendtext" text-anchor="start" x="40" y="9.360000000000001" style="font-family: 'Open Sans', verdana, arial, sans-serif; font-size: 24px; fill: rgb(42, 63, 95); fill-opacity: 1; white-space: pre;">Train_AUC: 0.981</text><g class="layers" style="opacity: 1;"><g class="legendfill"/><g class="legendlines"><path class="js-line" d="M5,0h30" style="fill: none; stroke: rgb(128, 0, 128); stroke-opacity: 1; stroke-width: 2px;"/></g><g class="legendsymbols"><g class="legendpoints"/></g></g><rect class="legendtoggle" x="0" y="-17.1" width="254.421875" height="34.2" style="fill: rgb(0, 0, 0); fill-opacity: 0;"/></g></g></g><rect class="scrollbar" rx="20" ry="3" width="0" height="0" x="0" y="0" style="fill: rgb(128, 139, 164); fill-opacity: 1;"/></g><g class="g-gtitle"><text class="gtitle" x="400" y="25" text-anchor="middle" dy="0em" style="font-family: 'Open Sans', verdana, arial, sans-serif; font-size: 17px; fill: rgb(42, 63, 95); opacity: 1; font-weight: normal; white-space: pre;">ROC Curve XGB model</text></g><g class="g-xtitle" transform="translate(0,-4.203125)"><text class="xtitle" x="409.00000000000006" y="800.203125" text-anchor="middle" style="font-family: 'Open Sans', verdana, arial, sans-serif; font-size: 20px; fill: rgb(42, 63, 95); opacity: 1; font-weight: normal; white-space: pre;">1 - Specificity</text></g><g class="g-ytitle" transform="translate(19.375,0)"><text class="ytitle" transform="rotate(-90,0.625,399)" x="0.625" y="399" text-anchor="middle" style="font-family: 'Open Sans', verdana, arial, sans-serif; font-size: 20px; fill: rgb(42, 63, 95); opacity: 1; font-weight: normal; white-space: pre;">Sensitivity</text></g></g></svg>