<svg class="main-svg" xmlns="http://www.w3.org/2000/svg" xmlns:xlink="http://www.w3.org/1999/xlink" width="800" height="800" style="" viewBox="0 0 800 800"><rect x="0" y="0" width="800" height="800" style="fill: rgb(255, 255, 255); fill-opacity: 1;"/><defs id="defs-2e3741"><g class="clips"><clipPath id="clip2e3741xyplot" class="plotclip"><rect width="698.0000000000001" height="698"/></clipPath><clipPath class="axesclip" id="clip2e3741x"><rect x="60" y="0" width="698.0000000000001" height="800"/></clipPath><clipPath class="axesclip" id="clip2e3741y"><rect x="0" y="50" width="800" height="698"/></clipPath><clipPath class="axesclip" id="clip2e3741xy"><rect x="60" y="50" width="698.0000000000001" height="698"/></clipPath></g><g class="gradients"/><g class="patterns"/></defs><g class="bglayer"/><g class="layer-below"><g class="imagelayer"/><g class="shapelayer"/></g><g class="cartesianlayer"><g class="subplot xy"><g class="layer-subplot"><g class="shapelayer"/><g class="imagelayer"/></g><g class="gridlayer"><g class="x"><path class="xgrid crisp" transform="translate(199.6,0)" d="M0,50v698" style="stroke: rgb(189, 195, 199); stroke-opacity: 0.5; stroke-width: 1px;"/><path class="xgrid crisp" transform="translate(339.2,0)" d="M0,50v698" style="stroke: rgb(189, 195, 199); stroke-opacity: 0.5; stroke-width: 1px;"/><path class="xgrid crisp" transform="translate(478.8,0)" d="M0,50v698" style="stroke: rgb(189, 195, 199); stroke-opacity: 0.5; stroke-width: 1px;"/><path class="xgrid crisp" transform="translate(618.4,0)" d="M0,50v698" style="stroke: rgb(189, 195, 199); stroke-opacity: 0.5; stroke-width: 1px;"/></g><g class="y"><path class="ygrid crisp" transform="translate(0,608.4)" d="M60,0h698.0000000000001" style="stroke: rgb(189, 195, 199); stroke-opacity: 0.5; stroke-width: 1px;"/><path class="ygrid crisp" transform="translate(0,468.8)" d="M60,0h698.0000000000001" style="stroke: rgb(189, 195, 199); stroke-opacity: 0.5; stroke-width: 1px;"/><path class="ygrid crisp" transform="translate(0,329.2)" d="M60,0h698.0000000000001" style="stroke: rgb(189, 195, 199); stroke-opacity: 0.5; stroke-width: 1px;"/><path class="ygrid crisp" transform="translate(0,189.6)" d="M60,0h698.0000000000001" style="stroke: rgb(189, 195, 199); stroke-opacity: 0.5; stroke-width: 1px;"/></g></g><g class="zerolinelayer"><path class="yzl zl crisp" transform="translate(0,748)" d="M60,0h698.0000000000001" style="stroke: rgb(235, 240, 248); stroke-opacity: 1; stroke-width: 2px;"/></g><path class="xlines-below"/><path class="ylines-below"/><g class="overlines-below"/><g class="xaxislayer-below"/><g class="yaxislayer-below"/><g class="overaxes-below"/><g class="plot" transform="translate(60,50)" clip-path="url(#clip2e3741xyplot)"><g class="scatterlayer mlayer"><g class="trace scatter trace7c7fb7" style="stroke-miterlimit: 2;"><g class="fills"><g><path class="js-fill" d="M0,698L7.05,0L14.1,0L698,0L698,0L14.1,0L7.05,0L0,698Z" style="fill: rgb(128, 252, 128); fill-opacity: 0.2; stroke-width: 0;"/></g></g><g class="errorbars"/><g class="lines"><path class="js-line" d="M0,698L7.05,0L14.1,0L698,0" style="vector-effect: non-scaling-stroke; fill: none; stroke: rgb(128, 152, 128); stroke-opacity: 0.5; stroke-width: 1px; opacity: 1;"/></g><g class="points"/><g class="text"/></g><g class="trace scatter trace667a80" style="stroke-miterlimit: 2;"><g class="fills"/><g class="errorbars"/><g class="lines"><path class="js-line" d="M0,698L7.05,0L14.1,0L698,0" style="vector-effect: non-scaling-stroke; fill: none; stroke: rgb(128, 152, 128); stroke-opacity: 0.5; stroke-width: 1px; opacity: 1;"/></g><g class="points"/><g class="text"/></g><g class="trace scatter traceaec17d" style="stroke-miterlimit: 2; opacity: 1;"><g class="fills"/><g class="errorbars"/><g class="lines"><path class="js-line" d="M0,698L7.05,0L14.1,0L698,0" style="vector-effect: non-scaling-stroke; fill: none; stroke: rgb(128, 0, 128); stroke-opacity: 1; stroke-width: 2px; opacity: 1;"/></g><g class="points"/><g class="text"/></g><g class="trace scatter trace95194d" style="stroke-miterlimit: 2;"><g class="fills"><g><path class="js-fill" d="M0,698L7.05,420.65L14.1,203.1L21.15,155.24L28.2,100.76L35.25,76.15L42.3,69.26L56.4,56.93L63.45,46.15L77.56,44.02L84.61,35.75L91.66,31.96L98.71,30.29L105.76,25.94L112.81,25.6L119.86,22.62L126.91,22.14L133.96,20.11L141.01,19.63L162.16,19.05L169.21,17.92L176.26,17.28L183.31,15.37L211.52,13.63L218.57,11.82L232.67,11.64L239.72,10.53L260.87,10.18L267.92,7.93L289.07,7.45L296.12,6.8L338.42,5.83L345.47,4.95L373.68,3.93L380.73,3.93L437.13,3.93L444.18,3.13L521.74,1.98L528.79,1.98L620.44,1.39L627.49,0L698,0L698,0L253.82,0L246.77,0L211.52,0.24L204.46,1.19L183.31,1.28L176.26,0.95L169.21,1.5L162.16,1.16L141.01,2.97L133.96,4.07L126.91,3.62L119.86,4.73L112.81,6.9L105.76,8.14L91.66,8.07L84.61,7.85L77.56,6.32L70.51,8.3L63.45,12.12L56.4,11.64L42.3,15.56L35.25,23.73L28.2,25.27L21.15,12.77L14.1,37.06L7.05,48.21L0,698Z" style="fill: rgb(52, 152, 0); fill-opacity: 0.2; stroke-width: 0;"/></g></g><g class="errorbars"/><g class="lines"><path class="js-line" d="M0,698L7.05,48.21L14.1,37.06L21.15,12.77L28.2,25.27L35.25,23.73L42.3,15.56L56.4,11.64L63.45,12.12L70.51,8.3L77.56,6.32L84.61,7.85L91.66,8.07L105.76,8.14L112.81,6.9L119.86,4.73L126.91,3.62L133.96,4.07L141.01,2.97L162.16,1.16L169.21,1.5L176.26,0.95L183.31,1.28L204.46,1.19L211.52,0.24L246.77,0L253.82,0L698,0" style="vector-effect: non-scaling-stroke; fill: none; stroke: rgb(52, 152, 0); stroke-opacity: 0.5; stroke-width: 1px; opacity: 1;"/></g><g class="points"/><g class="text"/></g><g class="trace scatter trace6ba241" style="stroke-miterlimit: 2;"><g class="fills"/><g class="errorbars"/><g class="lines"><path class="js-line" d="M0,698L7.05,420.65L14.1,203.1L21.15,155.24L28.2,100.76L35.25,76.15L42.3,69.26L56.4,56.93L63.45,46.15L77.56,44.02L84.61,35.75L91.66,31.96L98.71,30.29L105.76,25.94L112.81,25.6L119.86,22.62L126.91,22.14L133.96,20.11L141.01,19.63L162.16,19.05L169.21,17.92L176.26,17.28L183.31,15.37L211.52,13.63L218.57,11.82L232.67,11.64L239.72,10.53L260.87,10.18L267.92,7.93L289.07,7.45L296.12,6.8L338.42,5.83L345.47,4.95L373.68,3.93L380.73,3.93L437.13,3.93L444.18,3.13L521.74,1.98L528.79,1.98L620.44,1.39L627.49,0L698,0" style="vector-effect: non-scaling-stroke; fill: none; stroke: rgb(52, 152, 0); stroke-opacity: 0.5; stroke-width: 1px; opacity: 1;"/></g><g class="points"/><g class="text"/></g><g class="trace scatter trace86f5cd" style="stroke-miterlimit: 2; opacity: 1;"><g class="fills"/><g class="errorbars"/><g class="lines"><path class="js-line" d="M0,698L7.05,234.43L14.1,120.08L21.15,84.01L28.2,63.02L35.25,49.94L42.3,42.41L56.4,34.29L63.45,29.13L70.51,26.75L77.56,25.17L84.61,21.8L91.66,20.01L98.71,19.22L105.76,17.04L112.81,16.25L119.86,13.68L148.06,10.9L155.11,10.5L211.52,6.94L218.57,5.94L387.78,1.39L394.83,1.39L486.48,0.79L493.54,0.59L698,0" style="vector-effect: non-scaling-stroke; fill: none; stroke: rgb(41, 128, 0); stroke-opacity: 1; stroke-width: 2px; opacity: 1;"/></g><g class="points"/><g class="text"/></g><g class="trace scatter trace22ab6d" style="stroke-miterlimit: 2;"><g class="fills"><g><path class="js-fill" d="M0,698L14.1,419.24L21.15,300.8L35.25,214.58L42.3,188.81L49.35,154.46L56.4,135.23L70.51,117.04L77.56,110.59L84.61,101.4L91.66,96.38L98.71,90.85L105.76,86.55L126.91,74.33L133.96,68.92L141.01,65.26L148.06,63.56L162.16,55.13L169.21,53.9L176.26,51.39L183.31,50.15L190.36,48.29L197.41,45.6L218.57,40.27L225.62,39.49L253.82,33.52L260.87,32.87L267.92,30.74L274.97,29.81L317.27,22.91L324.32,21.42L345.47,19.84L352.53,18.44L359.58,17.89L366.63,16.27L380.73,14.72L387.78,14.64L401.88,13.07L408.93,12.26L465.33,6.85L472.38,6.23L606.34,0.82L613.39,0.83L634.55,0.49L641.6,0.33L698,0L698,0L592.24,0.05L585.19,0L500.59,1.71L493.54,1.89L465.33,2.38L458.28,2.86L437.13,2.96L430.08,3.08L394.83,5.38L387.78,5.2L338.42,7.75L331.37,8.39L317.27,10.4L310.22,11.06L296.12,13.63L289.07,14.12L274.97,16.73L267.92,18.87L246.77,23.31L239.72,23.89L225.62,27.27L218.57,29.1L204.46,32.91L197.41,35.56L183.31,38.47L176.26,40.96L162.16,47.95L155.11,48.93L148.06,52.09L141.01,55.95L133.96,58.44L126.91,59.38L112.81,68.36L105.76,72.81L84.61,90.76L77.56,97.14L70.51,107.64L63.45,113.88L49.35,139.2L42.3,145.3L35.25,163.45L28.2,191.9L14.1,300.03L7.05,427.14L0,698Z" style="fill: rgb(0, 152, 219); fill-opacity: 0.2; stroke-width: 0;"/></g></g><g class="errorbars"/><g class="lines"><path class="js-line" d="M0,698L7.05,427.14L14.1,300.03L28.2,191.9L35.25,163.45L42.3,145.3L49.35,139.2L63.45,113.88L70.51,107.64L77.56,97.14L84.61,90.76L105.76,72.81L112.81,68.36L126.91,59.38L133.96,58.44L141.01,55.95L148.06,52.09L155.11,48.93L162.16,47.95L176.26,40.96L183.31,38.47L197.41,35.56L204.46,32.91L218.57,29.1L225.62,27.27L239.72,23.89L246.77,23.31L267.92,18.87L274.97,16.73L289.07,14.12L296.12,13.63L310.22,11.06L317.27,10.4L331.37,8.39L338.42,7.75L387.78,5.2L394.83,5.38L430.08,3.08L437.13,2.96L458.28,2.86L465.33,2.38L493.54,1.89L500.59,1.71L585.19,0L592.24,0.05L698,0" style="vector-effect: non-scaling-stroke; fill: none; stroke: rgb(0, 152, 219); stroke-opacity: 0.5; stroke-width: 1px; opacity: 1;"/></g><g class="points"/><g class="text"/></g><g class="trace scatter trace0d6e72" style="stroke-miterlimit: 2;"><g class="fills"/><g class="errorbars"/><g class="lines"><path class="js-line" d="M0,698L14.1,419.24L21.15,300.8L35.25,214.58L42.3,188.81L49.35,154.46L56.4,135.23L70.51,117.04L77.56,110.59L84.61,101.4L91.66,96.38L98.71,90.85L105.76,86.55L126.91,74.33L133.96,68.92L141.01,65.26L148.06,63.56L162.16,55.13L169.21,53.9L176.26,51.39L183.31,50.15L190.36,48.29L197.41,45.6L218.57,40.27L225.62,39.49L253.82,33.52L260.87,32.87L267.92,30.74L274.97,29.81L317.27,22.91L324.32,21.42L345.47,19.84L352.53,18.44L359.58,17.89L366.63,16.27L380.73,14.72L387.78,14.64L401.88,13.07L408.93,12.26L465.33,6.85L472.38,6.23L606.34,0.82L613.39,0.83L634.55,0.49L641.6,0.33L698,0" style="vector-effect: non-scaling-stroke; fill: none; stroke: rgb(0, 152, 219); stroke-opacity: 0.5; stroke-width: 1px; opacity: 1;"/></g><g class="points"/><g class="text"/></g><g class="trace scatter trace0298de" style="stroke-miterlimit: 2; opacity: 1;"><g class="fills"/><g class="errorbars"/><g class="lines"><path class="js-line" d="M0,698L7.05,490.17L14.1,359.64L21.15,272.13L28.2,223.93L35.25,189.01L42.3,167.06L49.35,146.83L56.4,130.73L63.45,119.77L70.51,112.34L84.61,96.08L91.66,90.51L98.71,84.59L105.76,79.68L126.91,66.85L133.96,63.68L162.16,51.54L169.21,49.02L176.26,46.17L183.31,44.31L232.67,31.64L239.72,30.34L289.07,20.88L296.12,20.22L310.22,17.61L317.27,16.66L324.32,15.28L331.37,14.73L430.08,6.51L437.13,6.09L521.74,2.68L528.79,2.49L578.14,0.72L585.19,0.56L698,0" style="vector-effect: non-scaling-stroke; fill: none; stroke: rgb(0, 128, 185); stroke-opacity: 1; stroke-width: 2px; opacity: 1;"/></g><g class="points"/><g class="text"/></g></g></g><g class="overplot"/><path class="xlines-above crisp" d="M59,748.5H758.0000000000001" style="fill: none; stroke-width: 1px; stroke: rgb(0, 0, 0); stroke-opacity: 1;"/><path class="ylines-above crisp" d="M59.5,50V748" style="fill: none; stroke-width: 1px; stroke: rgb(0, 0, 0); stroke-opacity: 1;"/><g class="overlines-above"/><g class="xaxislayer-above"><g class="xtick"><text text-anchor="middle" x="0" y="768.2" transform="translate(60,0)" style="font-family: 'Open Sans', verdana, arial, sans-serif; font-size: 16px; fill: rgb(42, 63, 95); fill-opacity: 1; white-space: pre; opacity: 1;">0</text></g><g class="xtick"><text text-anchor="middle" x="0" y="768.2" style="font-family: 'Open Sans', verdana, arial, sans-serif; font-size: 16px; fill: rgb(42, 63, 95); fill-opacity: 1; white-space: pre; opacity: 1;" transform="translate(199.6,0)">0.2</text></g><g class="xtick"><text text-anchor="middle" x="0" y="768.2" style="font-family: 'Open Sans', verdana, arial, sans-serif; font-size: 16px; fill: rgb(42, 63, 95); fill-opacity: 1; white-space: pre; opacity: 1;" transform="translate(339.2,0)">0.4</text></g><g class="xtick"><text text-anchor="middle" x="0" y="768.2" style="font-family: 'Open Sans', verdana, arial, sans-serif; font-size: 16px; fill: rgb(42, 63, 95); fill-opacity: 1; white-space: pre; opacity: 1;" transform="translate(478.8,0)">0.6</text></g><g class="xtick"><text text-anchor="middle" x="0" y="768.2" style="font-family: 'Open Sans', verdana, arial, sans-serif; font-size: 16px; fill: rgb(42, 63, 95); fill-opacity: 1; white-space: pre; opacity: 1;" transform="translate(618.4,0)">0.8</text></g><g class="xtick"><text text-anchor="middle" x="0" y="768.2" style="font-family: 'Open Sans', verdana, arial, sans-serif; font-size: 16px; fill: rgb(42, 63, 95); fill-opacity: 1; white-space: pre; opacity: 1;" transform="translate(758,0)">1</text></g></g><g class="yaxislayer-above"><g class="ytick"><text text-anchor="end" x="55.8" y="5.6" transform="translate(0,748)" style="font-family: 'Open Sans', verdana, arial, sans-serif; font-size: 16px; fill: rgb(42, 63, 95); fill-opacity: 1; white-space: pre; opacity: 1;">0</text></g><g class="ytick"><text text-anchor="end" x="55.8" y="5.6" style="font-family: 'Open Sans', verdana, arial, sans-serif; font-size: 16px; fill: rgb(42, 63, 95); fill-opacity: 1; white-space: pre; opacity: 1;" transform="translate(0,608.4)">0.2</text></g><g class="ytick"><text text-anchor="end" x="55.8" y="5.6" style="font-family: 'Open Sans', verdana, arial, sans-serif; font-size: 16px; fill: rgb(42, 63, 95); fill-opacity: 1; white-space: pre; opacity: 1;" transform="translate(0,468.8)">0.4</text></g><g class="ytick"><text text-anchor="end" x="55.8" y="5.6" style="font-family: 'Open Sans', verdana, arial, sans-serif; font-size: 16px; fill: rgb(42, 63, 95); fill-opacity: 1; white-space: pre; opacity: 1;" transform="translate(0,329.2)">0.6</text></g><g class="ytick"><text text-anchor="end" x="55.8" y="5.6" style="font-family: 'Open Sans', verdana, arial, sans-serif; font-size: 16px; fill: rgb(42, 63, 95); fill-opacity: 1; white-space: pre; opacity: 1;" transform="translate(0,189.6)">0.8</text></g><g class="ytick"><text text-anchor="end" x="55.8" y="5.6" style="font-family: 'Open Sans', verdana, arial, sans-serif; font-size: 16px; fill: rgb(42, 63, 95); fill-opacity: 1; white-space: pre; opacity: 1;" transform="translate(0,50)">1</text></g></g><g class="overaxes-above"/></g></g><g class="polarlayer"/><g class="ternarylayer"/><g class="geolayer"/><g class="funnelarealayer"/><g class="pielayer"/><g class="iciclelayer"/><g class="treemaplayer"/><g class="sunburstlayer"/><g class="glimages"/><defs id="topdefs-2e3741"><g class="clips"/><clipPath id="legend2e3741"><rect width="260" height="113" x="0" y="0"/></clipPath></defs><g class="layer-above"><g class="imagelayer"/><g class="shapelayer"><path data-index="0" fill-rule="evenodd" d="M60,748L758,50" clip-path="url(#clip2e3741xy)" style="opacity: 1; stroke: rgb(42, 63, 95); stroke-opacity: 1; fill: rgb(0, 0, 0); fill-opacity: 0; stroke-dasharray: 9px, 9px; stroke-width: 2px;"/></g></g><g class="infolayer"><g class="legend" pointer-events="all" transform="translate(496.4,628.02)"><rect class="bg" shape-rendering="crispEdges" width="260" height="113" x="0" y="0" style="stroke: rgb(68, 68, 68); stroke-opacity: 1; fill: rgb(255, 255, 255); fill-opacity: 1; stroke-width: 0px;"/><g class="scrollbox" transform="" clip-path="url(#legend2e3741)"><g class="groups"><g class="traces" transform="translate(0,22.1)" style="opacity: 1;"><text class="legendtext" text-anchor="start" x="40" y="9.360000000000001" style="font-family: 'Open Sans', verdana, arial, sans-serif; font-size: 24px; fill: rgb(42, 63, 95); fill-opacity: 1; white-space: pre;">Test_AUC: 0.936</text><g class="layers" style="opacity: 1;"><g class="legendfill"/><g class="legendlines"><path class="js-line" d="M5,0h30" style="fill: none; stroke: rgb(0, 128, 185); stroke-opacity: 1; stroke-width: 2px;"/></g><g class="legendsymbols"><g class="legendpoints"/></g></g><rect class="legendtoggle" x="0" y="-17.1" width="254.421875" height="34.2" style="fill: rgb(0, 0, 0); fill-opacity: 0;"/></g><g class="traces" transform="translate(0,56.300000000000004)" style="opacity: 1;"><text class="legendtext" text-anchor="start" x="40" y="9.360000000000001" style="font-family: 'Open Sans', verdana, arial, sans-serif; font-size: 24px; fill: rgb(42, 63, 95); fill-opacity: 1; white-space: pre;">Val_AUC: 0.980</text><g class="layers" style="opacity: 1;"><g class="legendfill"/><g class="legendlines"><path class="js-line" d="M5,0h30" style="fill: none; stroke: rgb(41, 128, 0); stroke-opacity: 1; stroke-width: 2px;"/></g><g class="legendsymbols"><g class="legendpoints"/></g></g><rect class="legendtoggle" x="0" y="-17.1" width="254.421875" height="34.2" style="fill: rgb(0, 0, 0); fill-opacity: 0;"/></g><g class="traces" transform="translate(0,90.5)" style="opacity: 1;"><text class="legendtext" text-anchor="start" x="40" y="9.360000000000001" style="font-family: 'Open Sans', verdana, arial, sans-serif; font-size: 24px; fill: rgb(42, 63, 95); fill-opacity: 1; white-space: pre;">Train_AUC: 1.000</text><g class="layers" style="opacity: 1;"><g class="legendfill"/><g class="legendlines"><path class="js-line" d="M5,0h30" style="fill: none; stroke: rgb(128, 0, 128); stroke-opacity: 1; stroke-width: 2px;"/></g><g class="legendsymbols"><g class="legendpoints"/></g></g><rect class="legendtoggle" x="0" y="-17.1" width="254.421875" height="34.2" style="fill: rgb(0, 0, 0); fill-opacity: 0;"/></g></g></g><rect class="scrollbar" rx="20" ry="3" width="0" height="0" x="0" y="0" style="fill: rgb(128, 139, 164); fill-opacity: 1;"/></g><g class="g-gtitle"><text class="gtitle" x="400" y="25" text-anchor="middle" dy="0em" style="font-family: 'Open Sans', verdana, arial, sans-serif; font-size: 17px; fill: rgb(42, 63, 95); opacity: 1; font-weight: normal; white-space: pre;">ROC Curve for XGB model</text></g><g class="g-xtitle" transform="translate(0,-4.203125)"><text class="xtitle" x="409.00000000000006" y="800.203125" text-anchor="middle" style="font-family: 'Open Sans', verdana, arial, sans-serif; font-size: 20px; fill: rgb(42, 63, 95); opacity: 1; font-weight: normal; white-space: pre;">1 - Specificity</text></g><g class="g-ytitle" transform="translate(19.375,0)"><text class="ytitle" transform="rotate(-90,0.625,399)" x="0.625" y="399" text-anchor="middle" style="font-family: 'Open Sans', verdana, arial, sans-serif; font-size: 20px; fill: rgb(42, 63, 95); opacity: 1; font-weight: normal; white-space: pre;">Sensitivity</text></g></g></svg>